<svg xmlns="http://www.w3.org/2000/svg" viewBox="0 0 448 512"><!--!Font Awesome Free 6.7.1 by @fontawesome - https://fontawesome.com License - https://fontawesome.com/license/free Copyright 2024 Fonticons, Inc.--><path d="M277.4 12C261.1 4.5 243.1 0 224 0c-53.7 0-99.5 33.1-118.5 80h81.2l90.7-68zM342.5 80c-7.9-19.5-20.7-36.2-36.5-49.5L240 80h102.5zM224 256c70.7 0 128-57.3 128-128 0-5.5-1-10.7-1.6-16H97.6c-.7 5.3-1.6 10.5-1.6 16 0 70.7 57.3 128 128 128zM80 299.7V512h128.3l-98.5-221.5A132.8 132.8 0 0 0 80 299.7zM0 464c0 26.5 21.5 48 48 48V320.2C18.9 344.9 0 381.3 0 422.4V464zm256-48h-55.4l42.7 96H256c26.5 0 48-21.5 48-48s-21.5-48-48-48zm57.6-128h-16.7c-22.2 10.2-46.9 16-72.9 16s-50.7-5.8-72.9-16h-7.4l42.7 96H256c44.1 0 80 35.9 80 80 0 18.1-6.3 34.6-16.4 48H400c26.5 0 48-21.5 48-48v-41.6c0-74.2-60.2-134.4-134.4-134.4z"/></svg>