<?xml version="1.0" encoding="UTF-8"?>
<svg version="1.1" xmlns="http://www.w3.org/2000/svg" width="512" height="512">
<path d="M0 0 C0.94093506 0.29801514 0.94093506 0.29801514 1.90087891 0.60205078 C16.46813424 5.29153375 28.51717411 12.87136844 40 23 C40.62261719 23.53882812 41.24523437 24.07765625 41.88671875 24.6328125 C59.38881988 40.87019304 69.17151134 65.73300085 70.22265625 89.22265625 C70.99171237 116.5479952 61.98535151 141.44891936 43.3671875 161.55859375 C36.05824977 169.26430239 28.14724633 174.73818275 19 180 C19.54599854 180.17950195 20.09199707 180.35900391 20.65454102 180.54394531 C41.28243523 187.429199 60.90877526 196.3911123 78 210 C78.54269531 210.43135254 79.08539063 210.86270508 79.64453125 211.30712891 C99.58922905 227.29908654 99.58922905 227.29908654 104.87797546 236.13893127 C108.09641048 241.37867133 110.7569561 245.31828645 116.81565857 247.15966797 C121.39082347 247.69487597 125.94606966 247.51484074 130.5390625 247.34765625 C132.23193138 247.33566444 133.92485603 247.33003467 135.61776733 247.33042908 C140.05210047 247.31719967 144.48166552 247.23000241 148.91461182 247.12304688 C156.01284 246.96448083 163.11267138 246.92019883 170.21235275 246.87450981 C172.67932102 246.84816082 175.14398416 246.79065287 177.61026001 246.72779846 C187.05089363 246.55013141 193.43638689 246.94345501 200.8125 253.5 C207.39317562 261.02077213 208.29794303 267.05715722 208.125 276.875 C208.11597656 277.84953125 208.10695313 278.8240625 208.09765625 279.828125 C208.07421623 282.21900728 208.04140442 284.60937261 208 287 C208.84667236 286.99111755 209.69334473 286.98223511 210.56567383 286.9730835 C218.56870797 286.89273121 226.57160542 286.8319311 234.57495117 286.79275131 C238.68897802 286.7719309 242.80266983 286.74371589 246.91650391 286.69824219 C250.89117701 286.65458477 254.8655291 286.63082123 258.84042358 286.62049103 C260.35221404 286.61313513 261.86398814 286.598771 263.37564087 286.57707977 C272.56912546 286.45047932 279.69565727 286.51486078 287.0234375 292.7109375 C287.46945312 293.26007813 287.91546875 293.80921875 288.375 294.375 C288.83648437 294.91898437 289.29796875 295.46296875 289.7734375 296.0234375 C292.82413147 300.93952397 293.25167979 305.72778886 293.26069641 311.4118042 C293.26452196 312.13674741 293.26834751 312.86169062 293.27228898 313.60860181 C293.28256956 316.02657752 293.27863626 318.44431357 293.2746582 320.86230469 C293.27900751 322.60063903 293.28419139 324.33897145 293.29014587 326.07730103 C293.30352604 330.79236447 293.30411545 335.50734769 293.30158257 340.22242641 C293.30051183 344.16352203 293.30539907 348.10460149 293.310188 352.04569364 C293.32128057 361.34818308 293.3217225 370.65063214 293.31567383 379.953125 C293.30963844 389.53589668 293.32193457 399.11852136 293.3432439 408.70126796 C293.36088643 416.93927848 293.36685693 425.17724234 293.36360615 433.41527104 C293.3617968 438.33062692 293.36439435 443.24587803 293.37832069 448.16121674 C293.39093697 452.78729715 293.3889191 457.41314944 293.37590981 462.03922653 C293.37355244 463.7314423 293.37624843 465.4236743 293.38453293 467.11587143 C293.43582052 478.41181609 293.3036491 488.98363943 285.8828125 498.17578125 C280.69234676 503.20471797 274.03184204 507.11943215 266.71762562 507.13142776 C265.83877038 507.13526891 264.95991514 507.13911005 264.05442792 507.1430676 C263.08810443 507.14220112 262.12178095 507.14133463 261.12617493 507.14044189 C259.58721401 507.14489858 259.58721401 507.14489858 258.01716298 507.1494453 C254.56262198 507.1581504 251.10811556 507.15964208 247.65356445 507.16113281 C245.18337428 507.16575974 242.71318483 507.17078423 240.24299622 507.17617798 C233.51970931 507.18931689 226.79643599 507.19578657 220.07313943 507.20018864 C215.87442858 507.20295119 211.67572002 507.20718861 207.47701073 507.21169281 C195.85065639 507.22388664 184.2243039 507.23418514 172.59794331 507.2375679 C171.85372313 507.23778747 171.10950295 507.23800703 170.34273065 507.23823325 C169.22373227 507.23856067 169.22373227 507.23856067 168.08212787 507.2388947 C166.57045829 507.23933817 165.05878872 507.23978473 163.54711914 507.24023438 C162.79727921 507.2404558 162.04743927 507.24067723 161.27487691 507.24090537 C149.1298412 507.2448518 136.98486555 507.26230056 124.83985303 507.2855939 C112.36890017 507.30931911 99.89797744 507.32177032 87.42700166 507.32293582 C80.42580692 507.32385202 73.4246904 507.32959026 66.42351723 507.34775543 C59.83669405 507.36478528 53.249993 507.36640025 46.66314507 507.35761642 C44.24605029 507.35684506 41.8289476 507.36120174 39.41187286 507.37107468 C36.11065248 507.38376767 32.80995998 507.37793127 29.50874329 507.36749268 C28.55357341 507.37554908 27.59840353 507.38360548 26.6142891 507.39190602 C17.22764638 507.32255191 10.88332981 504.64226682 3.984375 498.1953125 C-0.49612861 493.23853488 -3.10375867 487.23768332 -3.15821838 480.53913879 C-3.17290161 479.16985985 -3.17290161 479.16985985 -3.18788147 477.7729187 C-3.19363693 476.77382477 -3.1993924 475.77473083 -3.20532227 474.74536133 C-3.21522186 473.69153763 -3.22512146 472.63771393 -3.23532104 471.55195618 C-3.26695706 468.06200421 -3.29170188 464.57203861 -3.31640625 461.08203125 C-3.33697395 458.66492861 -3.35797038 456.24782959 -3.37937927 453.83073425 C-3.43461886 447.46362225 -3.48401986 441.0964777 -3.53222656 434.72930908 C-3.58242778 428.23422339 -3.63812105 421.73918508 -3.69335938 415.24414062 C-3.80096405 402.49613449 -3.90259036 389.74808791 -4 377 C-4.73605469 377.34933594 -5.47210938 377.69867188 -6.23046875 378.05859375 C-7.20628906 378.51363281 -8.18210938 378.96867187 -9.1875 379.4375 C-10.63189453 380.11619141 -10.63189453 380.11619141 -12.10546875 380.80859375 C-17.03024711 382.83566177 -21.47811467 383.12725117 -26.78024292 383.14044189 C-27.44927867 383.14341302 -28.11831442 383.14638414 -28.80762398 383.1494453 C-31.04217229 383.1580944 -33.27666678 383.15963731 -35.51123047 383.16113281 C-37.11635451 383.16576359 -38.72147745 383.1707886 -40.32659912 383.17617798 C-44.68200564 383.18927701 -49.03739675 383.19574179 -53.39281988 383.20018864 C-56.11510391 383.20312275 -58.83738376 383.20722815 -61.55966568 383.21169281 C-70.08074704 383.22535975 -78.60181882 383.23503094 -87.12291038 383.2388947 C-96.95289886 383.2433768 -106.78274839 383.26093513 -116.61269462 383.2898953 C-124.21624183 383.3115175 -131.81974994 383.32159923 -139.42332757 383.32293582 C-143.96246763 383.32398325 -148.50147692 383.32987815 -153.04058456 383.34775543 C-157.31041799 383.36424595 -161.58002246 383.3663869 -165.8498764 383.35761642 C-167.4143523 383.35684664 -168.97884057 383.36118111 -170.54328537 383.37107468 C-172.68439116 383.38381803 -174.82468884 383.37790532 -176.96578979 383.36749268 C-178.16223555 383.36895924 -179.3586813 383.3704258 -180.59138298 383.3719368 C-187.29543902 382.6404128 -192.23387302 379.65780591 -197 375 C-207.59971266 357.09014068 -200.97501411 325.83725486 -196.35717773 306.54052734 C-184.67134523 261.25381496 -156.2378555 222.55480532 -116.0859375 198.375 C-102.99330825 190.67710513 -89.25602847 185.17342457 -75 180 C-76.09054688 179.32517578 -76.09054688 179.32517578 -77.203125 178.63671875 C-100.55144194 163.69978266 -116.4757738 142.39171433 -123.2734375 115.4375 C-128.93206115 88.66551715 -123.42608584 62.05591884 -109 39 C-106.2201686 35.10922355 -103.22362227 31.52878445 -100 28 C-99.30261719 27.22140625 -98.60523437 26.4428125 -97.88671875 25.640625 C-73.92751533 0.23598518 -33.42007398 -11.00163926 0 0 Z M-84.58984375 36.62109375 C-99.16852167 50.87669847 -107.87604566 70.90484727 -108.24194336 91.25244141 C-108.31479985 111.57719334 -102.97837033 129.22434985 -90 145 C-89.40832031 145.76570312 -88.81664063 146.53140625 -88.20703125 147.3203125 C-74.96330813 163.52904826 -54.10314491 172.65355535 -33.625 174.875 C-12.10325965 175.92998727 8.71279669 169.28557732 25 155 C41.36838931 140.13861537 51.96161279 120.69096977 53.203125 98.34375 C53.37411483 84.3225837 51.13658104 71.73032858 45 59 C44.58105469 58.08734375 44.16210938 57.1746875 43.73046875 56.234375 C39.78708119 48.2794145 34.20721212 42.21593012 28 36 C27.2678125 35.25621094 26.535625 34.51242188 25.78125 33.74609375 C-5.41048662 4.00919559 -54.35582395 8.24287056 -84.58984375 36.62109375 Z M-62.3125 195 C-63.064104 195.1659668 -63.81570801 195.33193359 -64.59008789 195.50292969 C-68.70374897 196.46252074 -68.70374897 196.46252074 -72 199 C-64.08 224.74 -56.16 250.48 -48 277 C-47.34 277 -46.68 277 -46 277 C-45.51756836 276.08524902 -45.03513672 275.17049805 -44.53808594 274.22802734 C-28.42618352 243.68825484 -28.42618352 243.68825484 -21.75 231.5 C-21.29375244 230.66549316 -20.83750488 229.83098633 -20.36743164 228.97119141 C-18.28997179 225.17409081 -16.2088071 221.37909692 -14.12060547 217.58789062 C-12.45958826 214.57151481 -10.80703647 211.55061664 -9.15905762 208.52709961 C-8.20455273 206.78119157 -7.24151008 205.03995992 -6.27832031 203.29882812 C-5.41932129 201.72004883 -5.41932129 201.72004883 -4.54296875 200.109375 C-3.7698938 198.70123535 -3.7698938 198.70123535 -2.98120117 197.26464844 C-2.65740479 196.51731445 -2.3336084 195.76998047 -2 195 C-2.495 194.01 -2.495 194.01 -3 193 C-5.27665842 192.52990659 -5.27665842 192.52990659 -8.0234375 192.3671875 C-9.044375 192.28339844 -10.0653125 192.19960937 -11.1171875 192.11328125 C-12.72980469 191.99533203 -12.72980469 191.99533203 -14.375 191.875 C-15.97601563 191.74544922 -15.97601563 191.74544922 -17.609375 191.61328125 C-32.52111832 190.43010766 -47.70788594 191.74480017 -62.3125 195 Z M15 198 C14.69932617 198.58152832 14.39865234 199.16305664 14.08886719 199.76220703 C8.05780643 211.411773 1.95090131 223.01167207 -4.35644531 234.51416016 C-8.27296642 241.65731744 -12.14419351 248.82390102 -16 256 C-20.49809898 264.36665036 -25.01340979 272.72345258 -29.5625 281.0625 C-30.03880859 281.93583984 -30.51511719 282.80917969 -31.00585938 283.70898438 C-31.68551758 284.95325195 -31.68551758 284.95325195 -32.37890625 286.22265625 C-32.81090332 287.01430176 -33.24290039 287.80594727 -33.68798828 288.62158203 C-34.59699623 290.26943381 -35.51810059 291.91064866 -36.44873047 293.54638672 C-36.90779785 294.35479004 -37.36686523 295.16319336 -37.83984375 295.99609375 C-38.46234009 297.0797522 -38.46234009 297.0797522 -39.09741211 298.18530273 C-40.14844449 299.96066016 -40.14844449 299.96066016 -40 302 C-39.38592285 302.01458252 -38.7718457 302.02916504 -38.13916016 302.04418945 C-35.30054015 302.11961945 -32.46297742 302.21595776 -29.625 302.3125 C-28.65949219 302.33505859 -27.69398438 302.35761719 -26.69921875 302.38085938 C-20.05050497 302.6262817 -14.26870665 303.77248401 -8 306 C2.21997048 281.73957342 12.15244399 257.37174976 21.85205078 232.89848328 C23.65698554 228.34786261 25.48446582 223.80816492 27.34814453 219.28125 C27.72544205 218.35824097 28.10273956 217.43523193 28.49147034 216.48425293 C29.21440853 214.71772885 29.94343728 212.9536818 30.67930603 211.19250488 C30.99919998 210.4077478 31.31909393 209.62299072 31.64868164 208.81445312 C32.07752403 207.7785907 32.07752403 207.7785907 32.51502991 206.72180176 C33.23436775 204.90793816 33.23436775 204.90793816 32 203 C29.71263654 202.03474432 27.46791525 201.17935414 25.125 200.375 C24.48691406 200.14554688 23.84882813 199.91609375 23.19140625 199.6796875 C20.32723295 198.67513402 18.05749257 198 15 198 Z M-93.35546875 205.43359375 C-94.63897932 206.08963484 -95.91510902 206.76014449 -97.1875 207.4375 C-99.45800284 208.62563178 -101.72880935 209.81318353 -104 211 C-101.888996 228.42133144 -99.53989875 245.80441269 -97.09402609 263.18158364 C-96.70056697 265.97839839 -96.30820959 268.77536733 -95.91581166 271.57233113 C-94.99162005 278.1595422 -94.06552187 284.74648319 -93.13818359 291.33325195 C-92.18381986 298.11225026 -91.23294586 304.89173198 -90.2836684 311.67144424 C-89.46270738 317.53378468 -88.63956529 323.39581606 -87.81467068 329.2576043 C-87.32435971 332.74199177 -86.83488812 336.22649185 -86.34756088 339.71129799 C-85.80764342 343.57141024 -85.26318111 347.43087372 -84.71826172 351.2902832 C-84.55825684 352.43868683 -84.39825195 353.58709045 -84.23339844 354.77029419 C-84.08490448 355.81674606 -83.93641052 356.86319794 -83.78341675 357.94136047 C-83.65549681 358.85133946 -83.52757687 359.76131845 -83.39578056 360.69887257 C-83.0337237 363.150237 -83.0337237 363.150237 -82 366 C-67.48 366 -52.96 366 -38 366 C-42.63746679 350.21324264 -47.3664076 334.45947698 -52.1953125 318.73046875 C-52.47116432 317.83191854 -52.74701614 316.93336834 -53.03122711 316.00758934 C-55.66289213 307.43793732 -58.29952557 298.86981464 -60.9362793 290.30172729 C-62.74221315 284.43318036 -64.54725541 278.56435979 -66.3515625 272.6953125 C-66.6444088 271.74295023 -66.9372551 270.79058796 -67.23897552 269.80936623 C-70.79592948 258.2377359 -74.31970874 246.65756655 -77.7734375 235.0546875 C-78.42952365 232.85913053 -79.08561083 230.66357388 -79.74169922 228.46801758 C-80.88444092 224.64094457 -82.01145636 220.8097232 -83.12939453 216.9753418 C-83.61695044 215.33886223 -84.10502567 213.70253725 -84.59375 212.06640625 C-84.79874115 211.34488373 -85.0037323 210.62336121 -85.2149353 209.87997437 C-85.82866618 207.74632933 -85.82866618 207.74632933 -87 205 C-90.09227424 203.60061807 -90.09227424 203.60061807 -93.35546875 205.43359375 Z M48 212 C41.39139223 227.83167031 34.87791519 243.69891933 28.5 259.625 C28.20349548 260.36376373 27.90699097 261.10252747 27.60150146 261.86367798 C26.74272138 264.00466734 25.88654898 266.14668042 25.03125 268.2890625 C24.54205078 269.51318848 24.05285156 270.73731445 23.54882812 271.99853516 C21.62428884 276.97066613 19.82203665 281.9893992 18 287 C38.79 287 59.58 287 81 287 C81.33 281.06 81.66 275.12 82 269 C83.55205443 261.56647613 85.62067793 257.28126152 91 252 C92.0005363 251.00053658 93.00060745 250.00060709 94 249 C80.81779197 234.34363592 67.17672528 221.82566912 50 212 C49.34 212 48.68 212 48 212 Z M-121 222 C-141.39841203 239.42364361 -157.64221287 257.39476619 -169.375 281.75 C-169.79209229 282.61310791 -170.20918457 283.47621582 -170.63891602 284.36547852 C-171.03393311 285.20908936 -171.4289502 286.0527002 -171.8359375 286.921875 C-172.35486572 288.02934082 -172.35486572 288.02934082 -172.88427734 289.15917969 C-174.52739667 293.34284195 -175.7084401 297.69480035 -177 302 C-154.23 302 -131.46 302 -108 302 C-109.89775836 287.98222294 -109.89775836 287.98222294 -111.8125 273.96679688 C-112.59673793 268.25452626 -113.37894143 262.54202661 -114.14941406 256.82788086 C-114.77041311 252.22322697 -115.4002126 247.61985658 -116.03624344 243.01725578 C-116.27784486 241.25734569 -116.51622238 239.49699002 -116.75138474 237.73620796 C-117.08023492 235.27805527 -117.42031087 232.82170865 -117.76318359 230.36547852 C-117.90668495 229.26280891 -117.90668495 229.26280891 -118.05308533 228.13786316 C-118.29974325 226.41395532 -118.64051003 224.70395579 -119 223 C-119.66 222.67 -120.32 222.34 -121 222 Z M103 264 C100.47411298 266.36292656 99.11179163 267.66462511 98 271 C97.92943302 273.74082159 97.90663846 276.44846977 97.9375 279.1875 C97.958125 281.765625 97.97875 284.34375 98 287 C103.94 287 109.88 287 116 287 C111.67097139 273.79218122 111.67097139 273.79218122 103 264 Z M124 264 C124.2673999 264.59014893 124.5347998 265.18029785 124.81030273 265.78833008 C126.02089395 268.46236583 127.22922128 271.13741859 128.4375 273.8125 C129.06881836 275.2056543 129.06881836 275.2056543 129.71289062 276.62695312 C130.31713867 277.9659668 130.31713867 277.9659668 130.93359375 279.33203125 C131.30540771 280.15421143 131.67722168 280.9763916 132.06030273 281.82348633 C133 284 133 284 134 287 C152.81 287 171.62 287 191 287 C191 281.06 191 275.12 191 269 C186.79945747 263.87959161 186.79945747 263.87959161 183.04496765 263.39872742 C181.40948723 263.415382 181.40948723 263.415382 179.7409668 263.43237305 C178.50005783 263.4327507 177.25914886 263.43312836 175.9806366 263.43351746 C174.63682032 263.4590466 173.29301441 263.48512651 171.94921875 263.51171875 C170.56632264 263.52105164 169.18340993 263.52816551 167.80049133 263.53315735 C164.17180225 263.55219052 160.54412396 263.6012568 156.91583252 263.65667725 C153.20900139 263.7079509 149.50200589 263.73068853 145.79492188 263.75585938 C138.52948856 263.80938148 131.26488625 263.8946467 124 264 Z M14 306 C13.67811732 308.97898022 13.67811732 308.97898022 13.70947266 312.52587891 C13.70275543 313.19607056 13.69603821 313.86626221 13.68911743 314.5567627 C13.6700692 316.78010415 13.66620886 319.00314443 13.6640625 321.2265625 C13.65763563 322.77395756 13.65090735 324.3213514 13.64389038 325.8687439 C13.631898 329.11874199 13.62821119 332.36863368 13.62939453 335.61865234 C13.629597 339.76804386 13.6023794 343.91674488 13.56785011 348.06597328 C13.54551675 351.26605305 13.54155906 354.46596892 13.54261398 357.66611862 C13.54026444 359.19462827 13.53147753 360.72314289 13.51594925 362.25157547 C13.38414601 375.16347193 13.38414601 375.16347193 19.859375 386.0234375 C20.79523438 386.69246094 20.79523438 386.69246094 21.75 387.375 C22.36359375 387.83648437 22.9771875 388.29796875 23.609375 388.7734375 C29.90883466 392.00551321 36.40441224 392.29206455 43.32945251 392.26069641 C44.23648645 392.26452196 45.14352038 392.26834751 46.07804018 392.27228898 C49.10018241 392.28256112 52.1221326 392.27863786 55.14428711 392.2746582 C57.31803055 392.27900785 59.49177245 392.28419184 61.66551208 392.29014587 C67.55803403 392.30351916 73.45049176 392.30411644 79.34302592 392.30158257 C84.26601951 392.30051184 89.18900017 392.3053988 94.11199099 392.310188 C105.72725842 392.32127717 117.34249351 392.32172374 128.95776367 392.31567383 C140.9331743 392.3096322 152.90841636 392.32195123 164.88380998 392.3432439 C175.17363099 392.3608656 185.46341464 392.36686039 195.75325018 392.36360615 C201.89535152 392.36179425 208.03736906 392.36442049 214.17945671 392.37832069 C219.95545223 392.39090376 225.73126473 392.38895024 231.50725746 392.37590981 C233.62399737 392.37354563 235.74075017 392.37627299 237.85747528 392.38453293 C240.75304949 392.39501527 243.64801128 392.38688764 246.54356384 392.3742218 C247.79174083 392.38528323 247.79174083 392.38528323 249.06513351 392.39656812 C256.39404808 392.32939762 263.71854499 390.81544805 269.375 385.875 C270.00148438 385.35679687 270.62796875 384.83859375 271.2734375 384.3046875 C277.07976589 376.55415865 276.44385161 367.03896673 276.3984375 357.7890625 C276.40046195 356.32937475 276.40337646 354.86968798 276.40713501 353.41000366 C276.41153257 350.36910252 276.40520535 347.32846762 276.39111328 344.28759766 C276.37393067 340.39021215 276.38393528 336.4934424 276.40183067 332.59607887 C276.41266044 329.59007097 276.40922755 326.58420975 276.4014473 323.57819748 C276.39944777 322.14047548 276.40189591 320.70274012 276.40888596 319.26503372 C276.41649627 317.26214094 276.40284193 315.25920126 276.38818359 313.25634766 C276.38579681 312.11767242 276.38341003 310.97899719 276.38095093 309.80581665 C275.9449353 306.59443214 275.50916241 305.93311132 273 304 C270.93737305 303.55327192 270.93737305 303.55327192 268.62277889 303.62526989 C267.72280648 303.61806335 266.82283407 303.6108568 265.89558977 303.60343188 C264.90571882 303.61080617 263.91584787 303.61818045 262.89598083 303.6257782 C261.32004319 303.61981659 261.32004319 303.61981659 259.71226841 303.61373454 C256.17449839 303.60407233 252.63712435 303.61595354 249.09936523 303.62768555 C246.57017873 303.6252589 244.04099319 303.62154082 241.5118103 303.61662292 C235.34523389 303.60817374 229.17880558 303.61374364 223.01223951 303.62588587 C215.83597842 303.63949117 208.65974532 303.63786934 201.48347462 303.63575254 C188.68272532 303.63256118 175.88203164 303.64423917 163.08129883 303.66381836 C150.65029202 303.68282713 138.21935038 303.68990506 125.78833008 303.68432617 C112.26142152 303.67827345 98.73454164 303.67843582 85.20763546 303.689812 C83.76632853 303.69101934 82.32502161 303.69222532 80.88371468 303.69342995 C80.17450472 303.69403349 79.46529477 303.69463702 78.73459361 303.69525885 C73.72809795 303.69914396 68.72161294 303.69874211 63.7151165 303.6968441 C56.98220943 303.69450501 50.24939862 303.70302347 43.5165062 303.7189045 C41.0388467 303.72316306 38.56117868 303.72398743 36.08351707 303.72121429 C32.71459618 303.71801448 29.34593019 303.72701849 25.97703552 303.73930359 C24.98493385 303.73552427 23.99283218 303.73174494 22.97066683 303.72785109 C22.07330216 303.73368329 21.1759375 303.73951548 20.25137997 303.74552441 C19.47306063 303.74639118 18.69474129 303.74725796 17.89283651 303.748151 C15.75775241 303.83713539 15.75775241 303.83713539 14 306 Z M-181 319 C-183.44151363 329.98681132 -184.19432025 340.28053032 -184.25 351.5 C-184.270625 352.56992187 -184.29125 353.63984375 -184.3125 354.7421875 C-184.31765625 355.76570313 -184.3228125 356.78921875 -184.328125 357.84375 C-184.3374707 358.76349609 -184.34681641 359.68324219 -184.35644531 360.63085938 C-184.16593028 362.98006774 -184.16593028 362.98006774 -182.96946716 364.62678528 C-179.91282785 366.75803285 -176.72414707 366.39182579 -173.13208008 366.34057617 C-172.33184921 366.34101425 -171.53161835 366.34145233 -170.70713806 366.34190369 C-168.06102128 366.33981297 -165.4155374 366.31646894 -162.76953125 366.29296875 C-160.93536221 366.28737379 -159.10118868 366.28310322 -157.26701355 366.28010559 C-152.43852367 366.26864891 -147.61030434 366.23917465 -142.78192139 366.20599365 C-137.85530253 366.17531051 -132.92863998 366.16160401 -128.00195312 366.14648438 C-118.33451652 366.11430574 -108.66728075 366.06309943 -99 366 C-99.83210892 359.78810326 -100.66874335 353.5768282 -101.50854492 347.3659668 C-101.79377109 345.25250099 -102.07795632 343.13889444 -102.36108398 341.02514648 C-102.76794008 337.98904523 -103.17852214 334.95346783 -103.58984375 331.91796875 C-103.71592514 330.97100632 -103.84200653 330.02404388 -103.97190857 329.04838562 C-104.09195755 328.16769913 -104.21200653 327.28701263 -104.33569336 326.37963867 C-104.4400621 325.60464523 -104.54443085 324.82965179 -104.65196228 324.03117371 C-104.98039871 321.80636176 -104.98039871 321.80636176 -106 319 C-130.75 319 -155.5 319 -181 319 Z M-34 319 C-33.36310797 324.64622935 -31.98197734 329.80299987 -30.27734375 335.21484375 C-30.01240616 336.07058487 -29.74746857 336.92632599 -29.47450256 337.80799866 C-28.63380576 340.51940658 -27.78577703 343.2284552 -26.9375 345.9375 C-26.36344504 347.78435383 -25.78987229 349.63135761 -25.21679688 351.47851562 C-23.81677101 355.98743121 -22.41016853 360.49424676 -21 365 C-14.01249526 362.79407869 -9.36557976 359.28128805 -5.0625 353.3125 C-2.30428844 347.30933366 -1.79612073 340.58569213 -3.90625 334.30078125 C-7.51670349 326.5591358 -12.06864332 322.3544806 -20 319 C-23.65800032 318.64003957 -23.65800032 318.64003957 -27.375 318.8125 C-28.62023437 318.83957031 -29.86546875 318.86664063 -31.1484375 318.89453125 C-32.55996094 318.94673828 -32.55996094 318.94673828 -34 319 Z M14 403 C13.93046962 413.21392327 13.87717325 423.42779017 13.84456348 433.64190197 C13.8289119 438.38480683 13.80768285 443.1275497 13.77368164 447.87036133 C13.74107015 452.44800215 13.72314316 457.02548721 13.71536827 461.60323524 C13.70982798 463.34913904 13.69900911 465.09503438 13.68280983 466.84087181 C13.66101158 469.28757482 13.65803405 471.73363533 13.65942383 474.18041992 C13.648638 474.90115189 13.63785217 475.62188385 13.6267395 476.36445618 C13.65371996 480.75821952 14.31524168 483.50097971 17 487 C23.04495488 491.45417728 29.31554448 491.14611312 36.51364136 491.13371277 C37.95821864 491.1371111 37.95821864 491.1371111 39.4319793 491.14057809 C42.66153352 491.14691218 45.89104572 491.1460891 49.12060547 491.14526367 C51.43507949 491.14825552 53.74955301 491.1516581 56.06402588 491.15544128 C62.35325809 491.16428256 68.64247671 491.16661944 74.93171453 491.16725707 C80.18032034 491.16820621 85.42892297 491.17188455 90.67752755 491.17542917 C102.35193285 491.18310879 114.02633151 491.18609774 125.70073913 491.18542381 C126.40100401 491.18538386 127.10126888 491.1853439 127.82275391 491.18530273 C128.52387531 491.18526185 129.22499672 491.18522097 129.94736423 491.18517885 C141.31048514 491.18477239 152.67357293 491.19434264 164.03668426 491.2084411 C175.70877732 491.22280848 187.38085271 491.22952799 199.05295479 491.22884732 C205.60414432 491.2285922 212.15529634 491.23145129 218.70647812 491.24202538 C224.86733319 491.25169786 231.02811483 491.25179133 237.18897247 491.24450874 C239.45006797 491.24346187 241.71116802 491.24583185 243.97225571 491.2518692 C247.05905421 491.25957745 250.1455984 491.2549519 253.23239136 491.24723816 C254.57408632 491.2549535 254.57408632 491.2549535 255.94288623 491.26282471 C261.42231223 491.23257175 267.2822962 491.18756875 271.7421875 487.59765625 C275.54707726 482.4413746 276.14515083 478.8296475 276.11352539 472.59106445 C276.11374443 471.46386993 276.11374443 471.46386993 276.1139679 470.31390381 C276.11327129 467.83033358 276.10549067 465.34683837 276.09765625 462.86328125 C276.09579118 461.14121034 276.09436769 459.41913889 276.09336853 457.69706726 C276.0895504 453.16460709 276.07972611 448.63217896 276.06866455 444.09973145 C276.05843531 439.47469516 276.05386766 434.84965371 276.04882812 430.22460938 C276.03810323 421.1497255 276.02103523 412.07486542 276 403 C275.07767578 403.30744141 275.07767578 403.30744141 274.13671875 403.62109375 C267.96126071 405.67957976 262.77713511 407.1548055 256.22387695 407.20532227 C255.03816101 407.22017166 255.03816101 407.22017166 253.82849121 407.23532104 C251.21511838 407.26691393 248.60172737 407.29168474 245.98828125 407.31640625 C244.17652412 407.33697769 242.36477177 407.35797421 240.55302429 407.37937927 C235.78388336 407.43458035 231.01469926 407.48399831 226.2454834 407.53222656 C221.37911129 407.5824559 216.5128019 407.63813449 211.64648438 407.69335938 C202.09770982 407.80091694 192.54888082 407.90236728 183 408 C182.98541748 408.59425781 182.97083496 409.18851562 182.95581055 409.80078125 C182.88061322 412.53445634 182.78419478 415.26700417 182.6875 418 C182.65366211 419.40185547 182.65366211 419.40185547 182.61914062 420.83203125 C182.17683165 432.33206472 182.17683165 432.33206472 179 437 C173.34679509 441.93669888 166.19383854 441.5703882 159.08984375 441.49609375 C157.40043419 441.4982766 157.40043419 441.4982766 155.67689514 441.50050354 C153.30597332 441.49885006 150.93504015 441.48735091 148.56420898 441.46655273 C144.94533513 441.43756277 141.32792488 441.44596395 137.70898438 441.45898438 C135.39843042 441.45274724 133.08788106 441.4443565 130.77734375 441.43359375 C129.70113266 441.43652939 128.62492157 441.43946503 127.51609802 441.44248962 C120.21516948 441.35122756 114.97054195 440.99966491 109.609375 435.5859375 C107.24685572 430.32187756 107.32398072 425.33496672 107.25 419.625 C107.22035156 418.50738281 107.19070313 417.38976562 107.16015625 416.23828125 C107.08974176 413.4921161 107.03690377 410.74678596 107 408 C105.51114792 407.99453156 105.51114792 407.99453156 103.99221802 407.98895264 C94.60623979 407.95189927 85.22058651 407.89401425 75.83485603 407.81609726 C71.01033355 407.77670546 66.18599132 407.74447644 61.36132812 407.72900391 C56.69915126 407.71378247 52.03747023 407.67924031 47.37551498 407.63169098 C45.60311078 407.61693354 43.83063576 407.60896224 42.05817032 407.60811615 C25.250748 407.59203428 25.250748 407.59203428 17.72555542 403.85357666 C16.02207846 402.85220468 16.02207846 402.85220468 14 403 Z M124 408 C124 413.61 124 419.22 124 425 C137.86 425 151.72 425 166 425 C166 419.39 166 413.78 166 408 C152.14 408 138.28 408 124 408 Z " fill="#000000" transform="translate(210,4)"/>
<path d="M0 0 C0.73412109 0.18272461 1.46824219 0.36544922 2.22460938 0.55371094 C24.46006048 6.17254485 52.91285825 16.13809904 70 32 C71.28098165 35.84294495 71.14748194 39.46728848 71.14526367 43.47192383 C71.14862228 44.33744873 71.1519809 45.20297363 71.15544128 46.09472656 C71.16496248 48.96550931 71.16689576 51.83623368 71.16796875 54.70703125 C71.1711833 56.70944747 71.17454752 58.71186345 71.17805481 60.71427917 C71.18405094 64.92174828 71.18589449 69.12919684 71.18530273 73.33666992 C71.18520172 78.69477433 71.1987887 84.05274441 71.21607494 89.41081715 C71.2272731 93.55387459 71.22921947 97.69690053 71.22869301 101.83997154 C71.22986389 103.81286769 71.23423486 105.7857649 71.24202538 107.75864601 C71.34744848 137.24427075 65.74705273 161.89767509 44.6875 183.75 C37.92777271 190.53680519 30.19279827 195.90205609 22.35107422 201.35449219 C18.51134815 204.04190171 14.72837288 206.8068492 10.9375 209.5625 C4.37093224 214.31302588 -2.22115788 219.02639745 -8.8671875 223.6652832 C-12.26186881 226.0389329 -15.61142742 228.44635828 -18.89453125 230.97265625 C-19.51424805 231.44098877 -20.13396484 231.90932129 -20.77246094 232.3918457 C-21.92193077 233.26398164 -23.06049973 234.15078335 -24.18457031 235.05541992 C-27.60926859 237.62820585 -30.60344467 238.75729045 -34.92651367 238.49853516 C-39.05664323 237.50551449 -42.09338029 234.90263556 -45.375 232.3125 C-46.9657672 231.11017596 -48.556924 229.90836724 -50.1484375 228.70703125 C-50.9537793 228.08908691 -51.75912109 227.47114258 -52.58886719 226.83447266 C-56.33889432 223.98132322 -60.17009802 221.2443993 -64 218.5 C-65.49780811 217.41853951 -66.99520285 216.33650631 -68.4921875 215.25390625 C-71.51536316 213.07020989 -74.54169036 210.8909792 -77.5703125 208.71484375 C-81.32380208 206.01652142 -85.06992973 203.3083035 -88.80957031 200.59082031 C-90.26567707 199.53330898 -91.72335357 198.47795557 -93.18261719 197.42480469 C-115.11180144 181.56219748 -129.93218192 163.51579971 -135.53434753 136.41506958 C-136.13701845 131.99511421 -136.16379509 127.65854334 -136.17700195 123.20263672 C-136.18357315 122.23282867 -136.19014435 121.26302063 -136.19691467 120.26382446 C-136.21655521 117.06911128 -136.22828474 113.87444471 -136.23828125 110.6796875 C-136.24235678 109.58692631 -136.2464323 108.49416512 -136.25063133 107.36828995 C-136.27144469 101.59302207 -136.28577128 95.81777768 -136.29516602 90.04248047 C-136.30626809 84.07241882 -136.34072515 78.10272603 -136.38033772 72.13279533 C-136.40642955 67.54321584 -136.41485084 62.95372567 -136.41844749 58.36407852 C-136.42332651 56.16240042 -136.43497765 53.96072665 -136.45348549 51.75912094 C-136.47773601 48.68530225 -136.47693853 45.61245852 -136.4699707 42.53857422 C-136.48278076 41.62730774 -136.49559082 40.71604126 -136.50878906 39.77716064 C-136.45775378 33.61628849 -136.45775378 33.61628849 -134.16325378 30.52713013 C-131.26333758 28.4799596 -128.2935037 26.6482225 -125.1875 24.9375 C-124.49881836 24.55609863 -123.81013672 24.17469727 -123.10058594 23.78173828 C-85.77408362 3.43446183 -42.70163939 -11.3773259 0 0 Z M-119 42 C-119.20394584 44.76297969 -119.2831704 47.42612882 -119.2746582 50.19067383 C-119.27976913 51.03815186 -119.28488007 51.88562988 -119.29014587 52.75878906 C-119.30409973 55.57494078 -119.30307896 58.39084894 -119.30078125 61.20703125 C-119.3046687 63.16843252 -119.30900348 65.12983296 -119.31376648 67.0912323 C-119.32124379 71.21473914 -119.3209292 75.33816043 -119.31567383 79.46166992 C-119.30991656 84.71573158 -119.32671153 89.96943642 -119.3500185 95.22343922 C-119.36485099 99.28240469 -119.36561401 103.3412865 -119.36250877 107.40027428 C-119.36301853 109.33492418 -119.3681905 111.2695792 -119.37832069 113.20420265 C-119.44094875 126.8540468 -118.95187303 139.61227147 -112.5 152 C-112.15670654 152.66660645 -111.81341309 153.33321289 -111.4597168 154.02001953 C-104.8206267 166.34703227 -95.36177617 175.00996848 -84 183 C-82.67563799 183.94250707 -81.35142497 184.88522351 -80.02734375 185.828125 C-77.17991755 187.84827648 -74.32462658 189.85676169 -71.46484375 191.859375 C-66.90745768 195.05606296 -62.38760756 198.30301852 -57.875 201.5625 C-56.75859131 202.36373291 -56.75859131 202.36373291 -55.61962891 203.18115234 C-51.9303682 205.83777502 -48.28802264 208.5347113 -44.70703125 211.3359375 C-44.02850098 211.85857178 -43.3499707 212.38120605 -42.65087891 212.91967773 C-41.37430354 213.90655526 -40.10884069 214.90803692 -38.85693359 215.92602539 C-36.9769733 217.43436282 -36.9769733 217.43436282 -34 219 C-30.50859581 217.98087422 -27.83659373 216.34176258 -24.953125 214.1640625 C-24.1995874 213.60066162 -23.4460498 213.03726074 -22.66967773 212.45678711 C-21.47193726 211.55005249 -21.47193726 211.55005249 -20.25 210.625 C-18.53881073 209.34624954 -16.82655052 208.06893108 -15.11328125 206.79296875 C-14.25428223 206.15278809 -13.3952832 205.51260742 -12.51025391 204.85302734 C-8.85881047 202.15759302 -5.15427716 199.54174261 -1.4375 196.9375 C-0.04676765 195.95848581 1.34385672 194.97931822 2.734375 194 C4.91938073 192.46217795 7.10556266 190.92615106 9.29492188 189.39453125 C30.33671574 174.64249925 47.72038719 159.54999537 53 133 C53.8049239 127.44220878 54.1405154 122.08306312 54.11352539 116.47265625 C54.11374443 115.2565844 54.11374443 115.2565844 54.1139679 114.01594543 C54.11327718 111.36476871 54.10552458 108.71366429 54.09765625 106.0625 C54.09578908 104.21305378 54.09436659 102.36360705 54.09336853 100.51416016 C54.08956692 95.66777153 54.07975694 90.82141331 54.06866455 85.97503662 C54.05839958 81.02112235 54.05386005 76.06720312 54.04882812 71.11328125 C54.03813239 61.40884088 54.02108452 51.70442298 54 42 C51.43762631 40.55324742 48.87463544 39.10760768 46.3112793 37.66259766 C45.58988518 37.25513809 44.86849106 36.84767853 44.12523651 36.4278717 C21.89728401 23.90435569 -2.25727426 14.27715849 -28 13 C-28.75925781 12.95875 -29.51851563 12.9175 -30.30078125 12.875 C-57.49343925 12.14376886 -99.38600933 22.38600933 -119 42 Z " fill="#000000" transform="translate(432,4)"/>
<path d="M0 0 C0.77166504 0.35030273 1.54333008 0.70060547 2.33837891 1.06152344 C4.56940105 2.08279591 6.78660599 3.12863342 9 4.1875 C9.66475342 4.49598877 10.32950684 4.80447754 11.0144043 5.12231445 C15.13193322 7.15973757 17.05529744 8.86227654 19 13 C19.38095093 16.34089661 19.38095093 16.34089661 19.38818359 20.19848633 C19.39606903 21.25830719 19.39606903 21.25830719 19.40411377 22.33953857 C19.41728939 24.67059626 19.40857431 27.0009668 19.3984375 29.33203125 C19.40046141 30.96807484 19.40337549 32.60411755 19.40713501 34.24015808 C19.41155714 37.67410853 19.40514015 41.10782486 19.39111328 44.54174805 C19.37417009 48.89755993 19.38376762 53.25281107 19.40183067 57.60860157 C19.41279965 60.9934441 19.40916048 64.37815932 19.4014473 67.76300621 C19.39947344 69.36582191 19.40180312 70.96864993 19.40888596 72.57145119 C19.48019527 93.27411834 16.2331691 112.62152245 1 128 C-7.29300508 135.56024681 -16.55996493 141.873244 -25.8515625 148.12402344 C-31.96513291 152.24522492 -37.8921156 156.56650617 -43.74975586 161.04296875 C-44.94238277 161.95321085 -46.13968759 162.85736683 -47.34228516 163.75439453 C-48.89797215 164.92333636 -50.4248019 166.13040574 -51.94921875 167.33984375 C-55.7618688 169.4145893 -58.81009009 169.98234681 -63 169 C-66.07489476 167.45074314 -68.67849242 165.44098907 -71.375 163.3125 C-72.96311745 162.11141804 -74.55167159 160.91091332 -76.140625 159.7109375 C-76.94564453 159.0931543 -77.75066406 158.47537109 -78.58007812 157.83886719 C-81.63775738 155.51537646 -84.75130894 153.27717811 -87.87573242 151.04467773 C-91.59911133 148.38419762 -95.29825647 145.6904552 -99 143 C-99.72558105 142.47486816 -100.45116211 141.94973633 -101.19873047 141.40869141 C-117.59678837 129.50729132 -128.83206655 118.73247234 -135 99 C-135.27137535 98.1631089 -135.27137535 98.1631089 -135.54823303 97.30931091 C-136.22281138 93.86104831 -136.18199438 90.41510294 -136.20874023 86.91430664 C-136.21852402 86.10245407 -136.2283078 85.2906015 -136.23838806 84.45414734 C-136.26825602 81.77283352 -136.28969861 79.09156904 -136.30859375 76.41015625 C-136.31516558 75.49333006 -136.3217374 74.57650387 -136.32850838 73.63189507 C-136.3610577 68.78268857 -136.38552428 63.93350371 -136.4050293 59.08422852 C-136.42287001 55.07120958 -136.45774032 51.05888966 -136.50756836 47.04614258 C-136.56769471 42.19797031 -136.59849331 37.35044805 -136.60820198 32.5019207 C-136.61676677 30.6554857 -136.63561015 28.80906857 -136.6649456 26.96284676 C-136.70379768 24.37948635 -136.70490445 21.79867034 -136.69702148 19.21508789 C-136.71702209 18.45388641 -136.73702271 17.69268494 -136.75762939 16.90841675 C-136.71815144 14.02537793 -136.58712624 11.71017321 -134.70561028 9.43433857 C-131.74993504 6.91918772 -128.49613914 5.00418809 -125.015625 3.31640625 C-124.08943359 2.86652344 -123.16324219 2.41664062 -122.20898438 1.953125 C-121.23251953 1.49421875 -120.25605469 1.0353125 -119.25 0.5625 C-118.23228516 0.08167969 -117.21457031 -0.39914063 -116.16601562 -0.89453125 C-77.01219057 -19.03719283 -38.87589997 -17.91736412 0 0 Z M-112.26464844 16.6159668 C-112.9132785 16.94146263 -113.56190857 17.26695847 -114.23019409 17.60231781 C-115.8206087 18.40059099 -117.41037019 19.20016516 -119 20 C-119.09315294 29.18031695 -119.16399266 38.36046832 -119.20724869 47.54115677 C-119.22802152 51.80527834 -119.25614765 56.06907384 -119.30175781 60.33300781 C-119.34558736 64.4568268 -119.36921434 68.58033444 -119.37950897 72.70436859 C-119.38683443 74.26867313 -119.40113711 75.83296286 -119.42292023 77.39713287 C-119.6254299 92.5574857 -116.79165653 104.63457221 -106.14453125 115.9765625 C-100.18755687 121.57634886 -93.34784246 126.10534626 -86.6484375 130.7578125 C-81.7863431 134.13536123 -76.982953 137.59121206 -72.1875 141.0625 C-71.42896729 141.61059326 -70.67043457 142.15868652 -69.88891602 142.72338867 C-64.07409683 146.93076322 -64.07409683 146.93076322 -62.0793457 148.79467773 C-60.01667806 150.31412139 -60.01667806 150.31412139 -57.50292969 149.36474609 C-55.16405946 148.08945497 -53.07723812 146.7682697 -50.953125 145.1640625 C-50.19894287 144.60033936 -49.44476074 144.03661621 -48.66772461 143.45581055 C-47.86987549 142.85164307 -47.07202637 142.24747559 -46.25 141.625 C-40.59213846 137.38721083 -34.91414544 133.20538351 -29.09985352 129.18432617 C-15.51590803 119.78123599 -3.89584448 110.41990918 1 94 C1.78647528 89.30657006 2.12251535 84.81061982 2.11352539 80.05493164 C2.11367142 79.40042023 2.11381744 78.74590881 2.1139679 78.07156372 C2.11327801 75.93439273 2.10552946 73.79731178 2.09765625 71.66015625 C2.09578878 70.16800484 2.09436643 68.67585281 2.09336853 67.18370056 C2.08956925 63.27601396 2.07976135 59.36836514 2.06866455 55.46069336 C2.0583945 51.46533723 2.05385897 47.46997493 2.04882812 43.47460938 C2.03813652 35.64972245 2.02109154 27.82486654 2 20 C-7.16510843 15.56407947 -16.21016638 11.2057074 -25.9375 8.125 C-26.77861328 7.84398437 -27.61972656 7.56296875 -28.48632812 7.2734375 C-57.15916448 -2.07113023 -85.89376189 3.33905858 -112.26464844 16.6159668 Z " fill="#000000" transform="translate(458,41)"/>
<path d="M0 0 C1.34237106 -0.00514106 2.68473538 -0.01242376 4.02708435 -0.02168274 C7.66569247 -0.04018195 11.30356691 -0.02726837 14.94214439 -0.00759244 C18.75281994 0.00880804 22.56344952 -0.00002077 26.37414551 -0.00511169 C32.77314964 -0.00963112 39.17186132 0.00622754 45.57080078 0.03417969 C52.96510959 0.06623115 60.35889099 0.06621552 67.75323725 0.04896492 C74.8711981 0.0330919 81.9889659 0.03983829 89.10691833 0.05690193 C92.13395843 0.06376812 95.16084358 0.0627445 98.18788147 0.05535698 C101.75364721 0.04768623 105.31881396 0.05984496 108.88447762 0.08720589 C110.81455735 0.09735885 112.74470907 0.08791534 114.67478943 0.07788086 C115.82717606 0.09060532 116.97956268 0.10332977 118.16687012 0.11643982 C119.16605217 0.11924674 120.16523422 0.12205366 121.19469452 0.12494564 C124.69123027 0.77065686 126.3841985 2.20619436 128.93554688 4.63110352 C130.07366477 6.9073393 130.07348027 8.19694453 130.09667969 10.72607422 C130.10628723 11.57067703 130.11589478 12.41527985 130.12579346 13.28547668 C130.13216827 14.65732368 130.13216827 14.65732368 130.13867188 16.05688477 C130.14437195 16.99662643 130.15007202 17.9363681 130.15594482 18.90458679 C130.16540161 20.89601513 130.17193149 22.88745917 130.17578125 24.87890625 C130.18547464 27.92093365 130.2164866 30.96228201 130.24804688 34.00415039 C130.25457812 35.93839117 130.25982812 37.87263678 130.26367188 39.80688477 C130.28219208 41.16962273 130.28219208 41.16962273 130.30108643 42.55989075 C130.28411544 47.38953213 130.14077085 50.73869747 126.93554688 54.63110352 C124.31678368 55.94048512 122.3788257 55.76595842 119.44497681 55.77827454 C117.69517265 55.78900749 117.69517265 55.78900749 115.91001892 55.79995728 C114.623741 55.80264618 113.33746307 55.80533508 112.01220703 55.80810547 C110.64895962 55.81436935 109.28571392 55.82101608 107.92247009 55.82801819 C104.21376649 55.84543308 100.50507578 55.85598094 96.79634142 55.86422372 C94.48030784 55.8693721 92.16427828 55.87544786 89.84824753 55.88173485 C82.60487402 55.900787 75.36151072 55.91501893 68.11811697 55.92334682 C59.75108282 55.93312496 51.38431282 55.95945919 43.01737177 55.99984771 C36.55362585 56.02998094 30.08995577 56.04481296 23.62614095 56.04812783 C19.76383145 56.05048124 15.90180414 56.05947903 12.03956985 56.084589 C8.40663911 56.10782672 4.77417721 56.11212071 1.14119148 56.10182762 C-0.82853576 56.10109425 -2.79823896 56.12021508 -4.76786804 56.13989258 C-5.94004379 56.13294876 -7.11221954 56.12600494 -8.31991577 56.11885071 C-9.33866476 56.12123906 -10.35741375 56.12362741 -11.40703392 56.12608814 C-14.77702932 55.49837539 -15.95982595 54.28101577 -18.06445312 51.63110352 C-18.57911682 49.43739319 -18.57911682 49.43739319 -18.59790039 47.03369141 C-18.61373672 46.1291774 -18.62957306 45.22466339 -18.64588928 44.29273987 C-18.64092941 43.32287643 -18.63596954 42.353013 -18.63085938 41.35375977 C-18.63705795 40.35025986 -18.64325653 39.34675995 -18.64964294 38.31285095 C-18.65674183 36.19213836 -18.65356594 34.07137005 -18.64086914 31.95068359 C-18.62701611 28.70834552 -18.66105909 25.46890037 -18.69921875 22.22680664 C-18.70017008 20.16495698 -18.69831039 18.1031037 -18.69335938 16.04125977 C-18.70661758 15.07342056 -18.71987579 14.10558136 -18.73353577 13.1084137 C-18.72100266 12.20074753 -18.70846954 11.29308136 -18.69555664 10.35791016 C-18.69459488 9.56389297 -18.69363312 8.76987579 -18.69264221 7.95179749 C-16.19792695 -1.26432991 -7.79957441 -0.07265198 0 0 Z M-1.06445312 17.63110352 C-1.06445312 24.56110352 -1.06445312 31.49110352 -1.06445312 38.63110352 C36.55554688 38.63110352 74.17554688 38.63110352 112.93554688 38.63110352 C112.93554688 31.70110352 112.93554688 24.77110352 112.93554688 17.63110352 C75.31554687 17.63110352 37.69554687 17.63110352 -1.06445312 17.63110352 Z " fill="#000000" transform="translate(299.064453125,323.368896484375)"/>
<path d="M0 0 C4.72299316 2.65727051 7.5913035 6.3538503 9.6875 11.3125 C10.09375 14.01171875 10.09375 14.01171875 10.1875 17 C10.2390625 17.97324219 10.290625 18.94648437 10.34375 19.94921875 C8.42910094 29.7617952 -0.54798948 36.99202193 -7.37109375 43.76953125 C-8.44477809 44.84524163 -9.5180172 45.92139656 -10.59083557 46.99797058 C-12.82761442 49.23914404 -15.06965603 51.47487381 -17.31567383 53.70678711 C-20.18155186 56.5555335 -23.033691 59.41759719 -25.88203335 62.28386402 C-28.09089156 64.5036024 -30.30689416 66.71609764 -32.5250721 68.92651939 C-33.5793425 69.97880164 -34.63142532 71.03328069 -35.68118095 72.09006691 C-48.03954728 84.51304433 -48.03954728 84.51304433 -55.33984375 85.87890625 C-56.30019531 85.87761719 -57.26054687 85.87632812 -58.25 85.875 C-59.20777344 85.89691406 -60.16554688 85.91882813 -61.15234375 85.94140625 C-68.97846102 84.38392185 -73.87447966 79.10480776 -78.5625 73 C-79.38004761 71.96190186 -79.38004761 71.96190186 -80.21411133 70.90283203 C-81.92732137 68.71637453 -83.62019424 66.51516062 -85.3125 64.3125 C-86.45692404 62.84757249 -87.60145411 61.3827278 -88.74609375 59.91796875 C-89.83244648 58.50913506 -90.91714298 57.09902234 -92 55.6875 C-92.50499023 55.03740967 -93.00998047 54.38731934 -93.53027344 53.7175293 C-98.21103536 47.51060704 -99.85456173 42.47835014 -98.8515625 34.7109375 C-97.58267481 29.06530676 -94.00242946 25.43911964 -89.3125 22.3125 C-83.98459076 19.71049781 -78.97855294 20.06782608 -73.3125 21.3125 C-68.13663841 23.79691356 -64.82144713 27.8907926 -61.14453125 32.19140625 C-59.59536588 33.98500283 -57.99745099 35.64952018 -56.3125 37.3125 C-55.87703354 36.86815109 -55.44156708 36.42380219 -54.99290466 35.96598816 C-50.4462391 31.33062162 -45.88539031 26.70956065 -41.31616211 22.09643555 C-39.61426169 20.37445752 -37.9159734 18.6489015 -36.22143555 16.91967773 C-33.78080932 14.43036785 -31.32735223 11.95434347 -28.87109375 9.48046875 C-28.11976669 8.70849655 -27.36843964 7.93652435 -26.59434509 7.14115906 C-18.99683146 -0.45954165 -10.52212466 -4.81123172 0 0 Z M-10.98013306 16.89352417 C-11.7029245 17.63361725 -12.42571594 18.37371033 -13.17041016 19.13623047 C-14.39771347 20.38785477 -14.39771347 20.38785477 -15.64981079 21.6647644 C-16.54138885 22.57718903 -17.43296692 23.48961365 -18.3515625 24.4296875 C-19.74849217 25.84689888 -21.14543739 27.26409531 -22.54327965 28.68040657 C-26.00193871 32.18483735 -29.45706846 35.69252433 -32.89501953 39.21728516 C-34.81932959 41.18960952 -36.75018394 43.15505905 -38.68881226 45.11331177 C-40.51646193 46.95972831 -42.33443051 48.81578927 -44.14151001 50.68234253 C-51.91963524 58.49396714 -51.91963524 58.49396714 -58.3125 59.3125 C-63.85987232 58.47224886 -66.65713607 53.62183399 -69.875 49.4375 C-70.99926647 48.00100867 -72.12551565 46.56606652 -73.25390625 45.1328125 C-74.04112061 44.13169434 -74.04112061 44.13169434 -74.84423828 43.11035156 C-76.53924169 41.03486019 -78.35447134 39.14127004 -80.3125 37.3125 C-81.04723856 39.13084206 -81.04723856 39.13084206 -81.3125 41.3125 C-80.39164443 43.16418251 -80.39164443 43.16418251 -78.84765625 44.8515625 C-78.29843506 45.51027344 -77.74921387 46.16898438 -77.18334961 46.84765625 C-76.58659424 47.53730469 -75.98983887 48.22695312 -75.375 48.9375 C-74.16860544 50.36662607 -72.96287549 51.79631344 -71.7578125 53.2265625 C-71.16645508 53.92168945 -70.57509766 54.61681641 -69.96582031 55.33300781 C-68.52904723 57.0532317 -67.15148552 58.79509059 -65.8046875 60.5859375 C-64.78761719 61.93558594 -64.78761719 61.93558594 -63.75 63.3125 C-63.17121094 64.09625 -62.59242188 64.88 -61.99609375 65.6875 C-60.22280498 67.77548356 -60.22280498 67.77548356 -56.3125 67.3125 C-53.83753875 65.42167496 -53.83753875 65.42167496 -51.36035156 62.81445312 C-50.64258797 62.09756569 -50.64258797 62.09756569 -49.9103241 61.36619568 C-48.33159146 59.78467709 -46.76749627 58.18946511 -45.203125 56.59375 C-44.11112426 55.4942887 -43.0182368 54.39570744 -41.92449951 53.29797363 C-39.04850645 50.40670975 -36.18472689 47.50363546 -33.32330322 44.59796143 C-30.40118495 41.63492195 -27.4677071 38.68317691 -24.53515625 35.73046875 C-18.7830745 29.93549054 -13.04384285 24.12798981 -7.3125 18.3125 C-7.8075 16.8275 -7.8075 16.8275 -8.3125 15.3125 C-9.5745439 15.19783151 -9.5745439 15.19783151 -10.98013306 16.89352417 Z " fill="#000000" transform="translate(442.3125,64.6875)"/>
</svg>
