<?xml version="1.0" encoding="UTF-8"?>
<svg version="1.1" xmlns="http://www.w3.org/2000/svg" width="512" height="512">
<path d="M0 0 C3.26701612 2.66358727 6.39330111 5.45632415 9.50390625 8.30078125 C10.70273437 9.37585938 10.70273437 9.37585938 11.92578125 10.47265625 C23.25825114 21.16214912 31.2098136 34.17437024 37.50390625 48.30078125 C38.22707031 49.88246094 38.22707031 49.88246094 38.96484375 51.49609375 C50.85831091 79.68000685 49.73861746 113.35036059 38.81640625 141.55078125 C32.90108917 155.93572542 24.97072002 167.85461648 14.50390625 179.30078125 C13.7871875 180.1 13.07046875 180.89921875 12.33203125 181.72265625 C1.64759501 193.04976534 -11.36854673 201.02104767 -25.49609375 207.30078125 C-26.56214844 207.78289062 -27.62820312 208.265 -28.7265625 208.76171875 C-56.97676024 220.57739081 -90.47330584 219.55423479 -118.74609375 208.61328125 C-133.13109209 202.69851085 -145.05010841 194.76743095 -156.49609375 184.30078125 C-157.2953125 183.5840625 -158.09453125 182.86734375 -158.91796875 182.12890625 C-170.24507784 171.44447001 -178.21636017 158.42832827 -184.49609375 144.30078125 C-184.97820312 143.23472656 -185.4603125 142.16867187 -185.95703125 141.0703125 C-197.77270331 112.82011476 -196.74954729 79.32356916 -185.80859375 51.05078125 C-179.89382335 36.66578291 -171.96274345 24.74676659 -161.49609375 13.30078125 C-160.779375 12.5015625 -160.06265625 11.70234375 -159.32421875 10.87890625 C-148.63978251 -0.44820284 -135.62364077 -8.41948517 -121.49609375 -14.69921875 C-120.43003906 -15.18132812 -119.36398438 -15.6634375 -118.265625 -16.16015625 C-80.25411123 -32.05850802 -32.33712441 -25.48734406 0 0 Z M-99.64453125 12.15478516 C-102.45787269 16.9349431 -101.86705013 20.86826892 -101.49609375 26.30078125 C-101.42632998 27.72471361 -101.35993076 29.14881327 -101.29620361 30.57302856 C-101.05752716 35.73568991 -100.76652762 40.89491676 -100.47265625 46.0546875 C-100.36528051 47.96556739 -100.25797172 49.87645105 -100.15072632 51.78733826 C-99.92600617 55.77559487 -99.69863973 59.76369096 -99.46972656 63.75170898 C-99.1781037 68.84050254 -98.8959404 73.92977305 -98.61611366 79.01922703 C-98.39790218 82.9599354 -98.17321171 86.90025543 -97.94675827 90.84049797 C-97.84000297 92.71608429 -97.73555108 94.5918033 -97.63353348 96.46765327 C-97.99966732 111.85812342 -97.99966732 111.85812342 -92.64149475 125.02210999 C-89.49556702 126.8971009 -86.40502117 126.76851723 -82.84375 126.76953125 C-81.73802895 126.78095154 -81.73802895 126.78095154 -80.60997009 126.79260254 C-79.05422342 126.80338526 -77.49840447 126.80626405 -75.94262695 126.80175781 C-73.56924065 126.80078561 -71.1990914 126.84241572 -68.82617188 126.88671875 C-67.31120463 126.89192644 -65.79622619 126.89461393 -64.28125 126.89453125 C-63.57589615 126.91092651 -62.8705423 126.92732178 -62.14381409 126.94421387 C-58.62040131 126.89508891 -56.57065283 126.34796888 -53.58325195 124.45727539 C-50.5251055 119.83231628 -50.54873082 115.65220868 -50.31640625 110.203125 C-50.24914337 109.07148422 -50.18188049 107.93984344 -50.11257935 106.77391052 C-49.92797775 103.62367173 -49.76361115 100.47299385 -49.60365295 97.32143402 C-49.41836669 93.84056785 -49.19593405 90.36209401 -48.97558594 86.88330078 C-48.45771701 78.64736036 -47.9778131 70.40950341 -47.5045166 62.17089844 C-47.3248008 59.06262069 -47.14088403 55.95459652 -46.95707512 52.84655857 C-46.77808521 49.80869898 -46.60209025 46.77067126 -46.42694473 43.73258781 C-46.34420043 42.3042122 -46.26050093 40.87589152 -46.17574692 39.44763374 C-45.91662712 35.06651895 -45.69996387 30.68476128 -45.49609375 26.30078125 C-45.42183167 25.23987274 -45.34756958 24.17896423 -45.27105713 23.08590698 C-45.05966335 18.59582627 -45.03238879 16.08866392 -47.34765625 12.15478516 C-51.86935127 9.49211828 -55.70682429 9.58253791 -60.87109375 9.63671875 C-61.87317871 9.63193512 -62.87526367 9.62715149 -63.90771484 9.6222229 C-66.02247694 9.61882647 -68.13729173 9.62801084 -70.25195312 9.64892578 C-73.48556796 9.67569412 -76.71571165 9.64916832 -79.94921875 9.6171875 C-82.00651806 9.62049164 -84.06381522 9.62689797 -86.12109375 9.63671875 C-87.0857959 9.6265976 -88.05049805 9.61647644 -89.04443359 9.60604858 C-93.34305459 9.68095663 -95.88937437 9.94350559 -99.64453125 12.15478516 Z M-92.49609375 144.30078125 C-97.3425054 150.56251666 -97.42342615 157.66223908 -96.49609375 165.30078125 C-94.76656589 171.59462524 -90.80514275 175.69017801 -85.49609375 179.30078125 C-79.90242337 182.46700977 -74.7948988 183.28643629 -68.49609375 182.30078125 C-61.68743924 180.04459971 -56.3345432 176.42155199 -52.49609375 170.30078125 C-49.68158032 164.46652946 -49.66312933 158.64752783 -50.49609375 152.30078125 C-53.03567707 145.60387293 -57.14079192 140.61596148 -63.49609375 137.30078125 C-74.2097687 132.5138201 -84.87377845 135.84869492 -92.49609375 144.30078125 Z " fill="#000000" transform="translate(237.49609375,263.69921875)"/>
<path d="M0 0 C1.65040705 -0.00543032 3.30080925 -0.01255806 4.95120239 -0.02124023 C9.40368233 -0.03936705 13.85578863 -0.03245079 18.30827451 -0.01972389 C22.98408537 -0.00954242 27.65986588 -0.01900363 32.3356781 -0.02526855 C40.18429259 -0.03252932 48.03275612 -0.02299786 55.88134766 -0.00390625 C64.9365827 0.01786706 73.9914575 0.01080147 83.04668385 -0.01121187 C90.84320697 -0.02940168 98.63962206 -0.03190695 106.43615955 -0.0214572 C111.08318191 -0.01524289 115.73003529 -0.0143297 120.37704659 -0.02760315 C124.74638368 -0.03921361 129.1152591 -0.03104178 133.48454666 -0.00802612 C135.08161721 -0.00276697 136.67872706 -0.00420458 138.27578163 -0.01307678 C149.78605853 -0.07109347 159.23106418 0.71271172 167.82421875 9.08325195 C168.30988847 9.54951146 168.79555819 10.01577097 169.29594517 10.49615955 C171.01199758 12.15435084 172.7038345 13.83526926 174.39624023 15.51757812 C175.80274554 16.89634205 177.20983594 18.27450927 178.61740112 19.65219116 C183.6196227 24.56521988 188.58547719 29.5143032 193.54858398 34.46679688 C194.89626956 35.81024138 194.89626956 35.81024138 196.27118111 37.18082619 C200.52823648 41.42451595 204.78357061 45.66991135 209.03589624 49.91833943 C213.91169856 54.78964433 218.79401345 59.65429762 223.68196672 64.51340932 C227.94718139 68.75434087 232.20405312 73.00354973 236.45800972 77.25577736 C238.25719219 79.05194212 240.05886485 80.84561622 241.8631115 82.63669395 C244.38253202 85.13901166 246.89226502 87.65067651 249.39990234 90.16479492 C250.50882591 91.25989632 250.50882591 91.25989632 251.64015198 92.37712097 C261.33139051 102.14681786 264.70238815 110.39024538 264.66366577 124.13664246 C264.66819688 125.31415441 264.672728 126.49166637 264.67739642 127.70486051 C264.68785544 130.96516497 264.68936816 134.22533048 264.68700767 137.48564637 C264.68659902 141.00522761 264.69764331 144.52477611 264.7071228 148.04434204 C264.72372436 154.93738919 264.729232 161.83040214 264.73034756 168.72346761 C264.73129858 174.32868929 264.73541159 179.9338997 264.74174881 185.53911781 C264.75936012 201.44049806 264.76858803 217.34185132 264.76708786 233.24324139 C264.76700795 234.10020074 264.76692804 234.95716008 264.7668457 235.84008789 C264.76676394 236.69809714 264.76668218 237.55610638 264.76659794 238.44011591 C264.76578542 252.33861499 264.78491488 266.23700561 264.81312244 280.13547333 C264.84187537 294.41569083 264.85566136 308.69585548 264.85393488 322.97610265 C264.85327174 330.98955415 264.85873065 339.00289199 264.88029099 347.01631737 C264.89853469 353.84066595 264.90282417 360.66484936 264.88927214 367.48921182 C264.88275803 370.96811467 264.88256818 374.44670094 264.89997864 377.92557335 C264.9154418 381.70519524 264.90611425 385.48399114 264.89071655 389.26359558 C264.90100368 390.35194566 264.91129081 391.44029575 264.92188966 392.56162614 C264.81934325 403.98854066 261.31753231 413.2198286 253.39624023 421.51757812 C242.09627852 432.30487617 229.9472528 433.10066976 215.07324219 432.97167969 C213.23913091 432.97054965 211.40501782 432.97118812 209.57090759 432.97344971 C204.62114269 432.97459168 199.67176995 432.9511665 194.72209573 432.92315388 C189.53848047 432.89805361 184.35485501 432.89579144 179.17118835 432.89105225 C169.36832876 432.87864775 159.5656488 432.84586043 149.76286811 432.80565429 C138.59719185 432.7608578 127.43150676 432.73892975 116.26576293 432.71887255 C93.30915599 432.67712549 70.3527082 432.60682273 47.39624023 432.51757812 C52.15698242 427.75244141 52.15698242 427.75244141 54.31030273 425.63867188 C54.87491211 425.08308594 55.43952148 424.5275 56.02124023 423.95507812 C56.87588867 423.11783203 56.87588867 423.11783203 57.74780273 422.26367188 C59.47057448 420.57338935 59.47057448 420.57338935 60.59612083 418.4400425 C62.39624023 416.51757812 62.39624023 416.51757812 65.27025795 416.01535606 C66.45044691 416.01426653 67.63063587 416.01317699 68.84658813 416.01205444 C69.5043368 416.00596432 70.16208546 415.9998742 70.83976591 415.99359953 C73.04856383 415.97795674 75.25628391 415.99080406 77.46508789 416.00341797 C79.04697351 415.99795887 80.62885383 415.99071846 82.21072388 415.98182678 C85.62060143 415.96646677 89.03017799 415.96369723 92.44008255 415.9705925 C97.83650746 415.98136716 103.23261744 415.96400883 108.6289978 415.94277954 C117.17114678 415.91248723 125.71320279 415.90082248 134.25540102 415.89720309 C149.53302086 415.89056705 164.8105753 415.86145309 180.08811605 415.81210673 C185.44710091 415.79564815 190.80595057 415.79018465 196.16495824 415.79369712 C199.50869979 415.79413589 202.85239086 415.78654344 206.1961174 415.77702141 C207.74039251 415.77435099 209.284678 415.77506917 210.82894897 415.77953148 C226.05994315 416.06689289 226.05994315 416.06689289 239.39624023 409.51757812 C247.48203829 401.36439842 247.54578375 392.39926514 247.53668213 381.53044128 C247.53965325 380.42093859 247.54262437 379.31143589 247.54568553 378.16831189 C247.55435999 374.44903297 247.55587972 370.72978628 247.55737305 367.01049805 C247.56200204 364.34444528 247.56700637 361.67839542 247.57241821 359.01234436 C247.58597864 351.7685264 247.59202241 344.52471399 247.59642887 337.28088546 C247.59919464 332.75567429 247.60343255 328.23046524 247.60793304 323.70525551 C247.62012172 311.16947533 247.63042248 298.63369685 247.63380814 286.09791088 C247.6340277 285.2961954 247.63424727 284.49447993 247.63447349 283.66847004 C247.63469177 282.86487193 247.63491004 282.06127381 247.63513494 281.23332423 C247.6355784 279.60501238 247.63602496 277.97670052 247.63647461 276.34838867 C247.63669604 275.54069526 247.63691747 274.73300184 247.63714561 273.90083287 C247.64109388 260.81255261 247.65855058 247.72432802 247.68183413 234.63606926 C247.70556101 221.18981608 247.71801056 207.74359082 247.71917605 194.29731637 C247.72009196 186.75119607 247.72582306 179.20514836 247.74399567 171.65904808 C247.75941456 165.23394808 247.76450651 158.80894311 247.75625756 152.38382813 C247.75235762 149.10773326 247.75488911 145.83186916 247.76731491 142.55578995 C247.78001385 138.99891764 247.77416822 135.44253485 247.76373291 131.88566589 C247.77178931 130.85763625 247.77984572 129.8296066 247.78814626 128.77042454 C247.73907924 121.60972621 247.18140252 114.53483727 242.14624023 109.08007812 C235.94887695 105.55884899 230.09177754 105.23574019 223.13061523 105.24414062 C221.33503616 105.22384493 219.53946329 105.20299403 217.74389648 105.18164062 C214.94875826 105.15912682 212.1538671 105.14259416 209.35864258 105.13671875 C194.53645619 105.08433428 182.64455606 104.25557338 171.39624023 93.51757812 C159.93645266 81.51316698 159.82406871 68.5825508 159.83374023 52.89257812 C159.83011095 50.1343221 159.82037609 47.37668853 159.79298401 44.61856079 C159.77642795 42.91451772 159.77313283 41.21027002 159.78599548 39.50619507 C159.7272652 32.81128683 158.81594625 26.13892631 154.14624023 21.08007812 C148.93122842 18.11700323 143.78175427 17.26767064 137.84451294 17.26361084 C136.56894531 17.25797119 135.29337769 17.25233154 133.97915649 17.246521 C132.58319034 17.25040884 131.18722476 17.25450513 129.79125977 17.25878906 C128.30731027 17.25607618 126.82336212 17.25251359 125.3394165 17.24816895 C121.32279211 17.23907639 117.30627084 17.24257666 113.28964472 17.24892712 C109.07646573 17.25400525 104.86329532 17.24929045 100.65011597 17.24615479 C93.57377546 17.24251962 86.49747674 17.2473016 79.42114258 17.25683594 C71.25560626 17.26771121 63.09016989 17.26419985 54.92463601 17.25318313 C47.90019985 17.24408738 40.87579367 17.2428364 33.85135353 17.24806046 C29.6620971 17.25116869 25.47288755 17.25162136 21.28363419 17.24498749 C17.34210061 17.23918161 13.40069497 17.24326985 9.45917511 17.254776 C8.01810035 17.25740569 6.5770147 17.25668664 5.13594437 17.25225067 C-9.67539535 17.05010045 -9.67539535 17.05010045 -22.60375977 23.51757812 C-29.43692572 30.40768713 -30.70770355 37.6037969 -30.76197815 47.0475769 C-30.77176697 48.34319046 -30.78155579 49.63880402 -30.79164124 50.97367859 C-30.7975443 52.39700281 -30.80335482 53.82032741 -30.80908203 55.24365234 C-30.81866873 56.75191003 -30.82867927 58.26016507 -30.83908081 59.76841736 C-30.86605019 63.85262559 -30.88710274 67.93684529 -30.9070828 72.02109289 C-30.92899165 76.29322731 -30.95635632 80.56532672 -30.98313904 84.83743286 C-31.03299979 92.9226792 -31.0779631 101.00794503 -31.1211614 109.09322941 C-31.17059042 118.29998795 -31.2254875 127.50671136 -31.28084099 136.71343589 C-31.39455942 155.64811752 -31.50122649 174.58283285 -31.60375977 193.51757812 C-36.88375977 193.51757812 -42.16375977 193.51757812 -47.60375977 193.51757812 C-47.69648671 172.58541715 -47.76780523 151.65330591 -47.81100845 130.72098064 C-47.83160461 121.00100892 -47.85966871 111.28116742 -47.90551758 101.5612793 C-47.94547573 93.08614871 -47.97121398 84.61111248 -47.98011374 76.13589031 C-47.98531333 71.65125742 -47.99747238 67.16689437 -48.02667999 62.68234825 C-48.05399124 58.45439795 -48.06217331 54.22682661 -48.05619049 49.99879646 C-48.05728375 48.45372833 -48.06514373 46.90864648 -48.08058167 45.36365509 C-48.20778105 31.96775473 -46.0833368 21.44766971 -36.60375977 11.51757812 C-25.82758564 1.23030415 -14.24168826 -0.07922764 0 0 Z " fill="#000000" transform="translate(203.603759765625,31.482421875)"/>
<path d="M0 0 C0.980648 -0.00623996 1.96129601 -0.01247993 2.97166061 -0.01890898 C6.2668314 -0.03489934 9.56126867 -0.02221077 12.85644531 -0.00964355 C15.2150516 -0.01506197 17.57365451 -0.02218304 19.93225098 -0.03088379 C26.34538536 -0.04915328 32.75826298 -0.0420345 39.17140198 -0.02936745 C43.17494178 -0.0222641 47.17846391 -0.02359447 51.18200684 -0.02732849 C51.84639668 -0.02794142 52.51078653 -0.02855436 53.1953094 -0.02918586 C54.54496036 -0.03046475 55.8946113 -0.0317616 57.24426222 -0.03307623 C69.90309393 -0.04448529 82.56180982 -0.03136325 95.22062254 -0.00987476 C106.08496522 0.00799656 116.94913696 0.00489255 127.81347656 -0.0135498 C140.42667583 -0.03495081 153.03977355 -0.04338663 165.65298843 -0.03110075 C166.99770354 -0.02982654 168.34241865 -0.02856906 169.68713379 -0.02732849 C170.34877745 -0.02671139 171.01042112 -0.02609429 171.69211459 -0.02545848 C176.35707709 -0.02200325 181.02193986 -0.02803263 185.68688965 -0.0372467 C191.96436823 -0.04877912 198.24152315 -0.04082687 204.51896667 -0.01766968 C206.82646649 -0.01236867 209.13399342 -0.01391999 211.44148254 -0.02272034 C214.58440627 -0.03360413 217.72628407 -0.01999831 220.86914062 0 C221.78858837 -0.00892289 222.70803612 -0.01784577 223.65534592 -0.02703905 C229.81775524 0.04934726 229.81775524 0.04934726 232.99920654 2.41468048 C234.55066125 4.67723509 234.97702069 5.79111045 234.93457031 8.50793457 C234.95003906 9.49793457 234.95003906 9.49793457 234.96582031 10.50793457 C234.14793582 13.58702913 233.00549774 14.5965113 230.43457031 16.50793457 C227.25208039 17.11540814 224.10075948 17.04723076 220.86914062 17.01586914 C219.39816862 17.02522908 219.39816862 17.02522908 217.89748001 17.03477812 C214.60230922 17.05076848 211.30787196 17.03807991 208.01269531 17.0255127 C205.65408902 17.03093111 203.29548611 17.03805218 200.93688965 17.04675293 C194.52375527 17.06502242 188.11087765 17.05790364 181.69773865 17.04523659 C177.69419885 17.03813324 173.69067672 17.03946361 169.68713379 17.04319763 C169.02274394 17.04381056 168.3583541 17.0444235 167.67383122 17.045055 C166.32418027 17.04633389 164.97452933 17.04763074 163.62487841 17.04894537 C150.96604669 17.06035443 138.3073308 17.04723239 125.64851809 17.0257439 C114.7841754 17.00787258 103.92000366 17.0109766 93.05566406 17.02941895 C80.4424648 17.05081995 67.82936707 17.05925577 55.21615219 17.04696989 C53.87143709 17.04569568 52.52672197 17.0444382 51.18200684 17.04319763 C50.52036317 17.04258053 49.85871951 17.04196343 49.17702603 17.04132763 C44.51206353 17.03787239 39.84720077 17.04390177 35.18225098 17.05311584 C28.90477239 17.06464826 22.62761747 17.05669601 16.35017395 17.03353882 C14.04267414 17.02823781 11.7351472 17.02978913 9.42765808 17.03858948 C6.28473436 17.04947327 3.14285655 17.03586746 0 17.01586914 C-0.91944775 17.02479203 -1.83889549 17.03371491 -2.78620529 17.04290819 C-8.94861461 16.96652188 -8.94861461 16.96652188 -12.13006592 14.60118866 C-13.68152063 12.33863405 -14.10788006 11.22475869 -14.06542969 8.50793457 C-14.08089844 7.51793457 -14.08089844 7.51793457 -14.09667969 6.50793457 C-12.19519407 -0.65059952 -6.09930108 -0.05919137 0 0 Z " fill="#000000" transform="translate(201.5654296875,191.4920654296875)"/>
<path d="M0 0 C1.0335104 -0.00551503 1.0335104 -0.00551503 2.0878998 -0.01114148 C4.40786065 -0.02219732 6.72777674 -0.02602533 9.04776001 -0.02983093 C10.70656986 -0.03609406 12.36537829 -0.04274073 14.02418518 -0.04974365 C18.53864927 -0.06716529 23.05310276 -0.0777082 27.56759214 -0.08594918 C30.38615447 -0.09109599 33.20471348 -0.09717181 36.02327347 -0.10346031 C44.83641934 -0.1225141 53.64955681 -0.13674585 62.46271932 -0.14507228 C72.64654853 -0.15485183 82.83016079 -0.18118923 93.01391351 -0.22157317 C100.87892132 -0.25169537 108.74386679 -0.26653737 116.60893118 -0.26985329 C121.30958968 -0.2722079 126.01001646 -0.28122158 130.71061325 -0.30631447 C135.13146425 -0.32953274 139.55192993 -0.33385378 143.972826 -0.32355309 C145.59661831 -0.32305611 147.22042918 -0.32942388 148.84416389 -0.34310913 C151.05892863 -0.36073346 153.27229624 -0.35377037 155.48706055 -0.34057617 C156.72703985 -0.34296453 157.96701916 -0.34535288 159.24457359 -0.34781361 C162.95006807 0.23894193 164.11970597 1.20619149 166.37051392 4.14717102 C166.90176392 6.14717102 166.90176392 6.14717102 166.87051392 8.14717102 C166.88598267 9.13717102 166.88598267 9.13717102 166.90176392 10.14717102 C166.11351839 13.11468359 164.76250425 14.24417216 162.37051392 16.14717102 C159.25016022 16.64774227 159.25016022 16.64774227 155.5005188 16.64837646 C154.80980301 16.65391086 154.11908723 16.65944526 153.40744066 16.66514736 C151.09333326 16.67875904 148.78030349 16.66378306 146.46621704 16.64888 C144.80710898 16.65266302 143.14800408 16.65816292 141.48890686 16.66525269 C136.98268648 16.67922695 132.47684708 16.66802379 127.97064781 16.65154147 C123.25729438 16.6377023 118.54396333 16.64414976 113.83059692 16.64767456 C105.91496635 16.65037758 97.99948733 16.63689319 90.08389282 16.61372375 C80.92932492 16.58711343 71.77501044 16.58536657 62.62041712 16.59711212 C53.81792104 16.60788733 45.01551674 16.60170485 36.21302795 16.58755684 C32.46509128 16.5817948 28.71722172 16.58188143 24.96928406 16.58662224 C20.55661748 16.59139081 16.14422878 16.58129538 11.73161507 16.55966759 C10.11106872 16.5540979 8.49049568 16.55363609 6.86994743 16.55862045 C4.65982516 16.56456622 2.45055452 16.55208288 0.24050903 16.53485107 C-1.61556347 16.53120623 -1.61556347 16.53120623 -3.50913239 16.52748775 C-6.8893248 16.11550121 -8.28114053 15.57838003 -10.62948608 13.14717102 C-11.73321987 9.17372941 -12.04492191 7.0571733 -10.31698608 3.27217102 C-7.29674507 -0.53109544 -4.6699071 0.01610422 0 0 Z " fill="#000000" transform="translate(269.6294860839844,239.8528289794922)"/>
<path d="M0 0 C1.686698 -0.01073296 1.686698 -0.01073296 3.4074707 -0.02168274 C4.64699493 -0.02437164 5.88651917 -0.02706055 7.16360474 -0.02983093 C8.46445007 -0.03640213 9.76529541 -0.04297333 11.1055603 -0.04974365 C14.67997045 -0.06715712 18.25436721 -0.07770602 21.82880926 -0.08594918 C24.06108807 -0.09109789 26.29336271 -0.09717364 28.52563858 -0.10346031 C35.50738333 -0.12251212 42.4891175 -0.13674409 49.47088325 -0.14507228 C57.53511916 -0.15485013 65.59908099 -0.18118369 73.66322029 -0.22157317 C79.89342258 -0.25170872 86.12354619 -0.26653864 92.35381997 -0.26985329 C96.07640557 -0.27220645 99.79869836 -0.28120089 103.5212059 -0.30631447 C107.67301517 -0.33387195 111.82420992 -0.32977197 115.97610474 -0.32279968 C117.21158051 -0.33560974 118.44705627 -0.3484198 119.7199707 -0.36161804 C120.85007568 -0.35467422 121.98018066 -0.34773041 123.14453125 -0.34057617 C124.12640852 -0.34296453 125.10828579 -0.34535288 126.11991692 -0.34781361 C129.42799203 0.28701979 130.61556447 1.55866292 132.69924927 4.14717102 C133.23049927 6.14717102 133.23049927 6.14717102 133.19924927 8.14717102 C133.21471802 9.13717102 133.21471802 9.13717102 133.23049927 10.14717102 C132.4549471 13.06689682 131.01155159 14.24110376 128.69924927 16.14717102 C126.12550354 16.65053558 126.12550354 16.65053558 123.1579895 16.65510559 C122.03077484 16.66638489 120.90356018 16.67766418 119.7421875 16.68928528 C118.50985382 16.68118835 117.27752014 16.67309143 116.00784302 16.66474915 C114.70670563 16.67175842 113.40556824 16.6787677 112.06500244 16.68598938 C108.49881712 16.70422089 104.93309479 16.69715631 101.3669014 16.68447304 C97.63449101 16.67434431 93.9021202 16.68373835 90.16970825 16.6900177 C83.9018136 16.69729451 77.63410748 16.68770566 71.36624146 16.6686554 C64.12020095 16.64688641 56.87461064 16.65393777 49.62858105 16.67596102 C43.40679414 16.6941142 37.18514274 16.6966738 30.9633379 16.68620634 C27.24753757 16.67997089 23.53194883 16.67913699 19.81616211 16.69235229 C15.67405545 16.70605485 11.53272461 16.68706263 7.39065552 16.66474915 C6.15832184 16.67284607 4.92598816 16.68094299 3.65631104 16.68928528 C1.96548904 16.67236633 1.96548904 16.67236633 0.24050903 16.65510559 C-0.7387706 16.65359749 -1.71805023 16.65208939 -2.727005 16.65053558 C-6.03443822 16.00367888 -7.2088712 14.73313977 -9.30075073 12.14717102 C-10.67824127 8.65752831 -10.41189902 7.42239536 -8.98825073 3.89717102 C-6.43569561 -0.26254844 -4.63225418 0.02017672 0 0 Z " fill="#000000" transform="translate(303.3007507324219,287.8528289794922)"/>
<path d="M0 0 C1.03894913 -0.0071553 2.07789825 -0.01431061 3.14833069 -0.02168274 C4.87274887 -0.02571609 4.87274887 -0.02571609 6.63200378 -0.02983093 C7.83516739 -0.03640213 9.03833099 -0.04297333 10.2779541 -0.04974365 C13.58798819 -0.06611589 16.8979581 -0.07771206 20.20801759 -0.08594918 C22.27495912 -0.09109476 24.34189612 -0.09717072 26.40883446 -0.10346031 C32.87266446 -0.12251988 39.33648299 -0.13674882 45.80033571 -0.14507228 C53.26747631 -0.15484567 60.73432055 -0.18116423 68.20135671 -0.22157317 C73.96869785 -0.25171514 79.73595397 -0.26653935 85.50337237 -0.26985329 C88.94987949 -0.27220623 92.39607028 -0.28119718 95.84249306 -0.30631447 C99.68779145 -0.33388485 103.53269888 -0.3297699 107.37809753 -0.32279968 C109.09340668 -0.34201477 109.09340668 -0.34201477 110.84336853 -0.36161804 C111.89077713 -0.35467422 112.93818573 -0.34773041 114.01733398 -0.34057617 C114.92676663 -0.34296453 115.83619928 -0.34535288 116.7731905 -0.34781361 C119.96584103 0.30360611 121.168114 1.65847892 123.19914246 4.14717102 C123.73039246 6.14717102 123.73039246 6.14717102 123.69914246 8.14717102 C123.71461121 9.13717102 123.71461121 9.13717102 123.73039246 10.14717102 C122.95850216 13.05311094 121.4879094 14.23939408 119.19914246 16.14717102 C116.79718781 16.64774227 116.79718781 16.64774227 114.07548523 16.64837646 C112.52349678 16.66312767 112.52349678 16.66312767 110.94015503 16.67817688 C109.81067947 16.66850891 108.68120392 16.65884094 107.51750183 16.64888 C106.32365372 16.65428299 105.1298056 16.65968597 103.89978027 16.66525269 C100.62895839 16.67561613 97.35879352 16.6680382 94.0880146 16.65154147 C90.66391214 16.63768398 87.23983999 16.64415184 83.8157196 16.64767456 C78.06567413 16.65037615 72.31583746 16.63690573 66.56584167 16.61372375 C59.91969749 16.58711416 53.27390241 16.585367 46.62772322 16.59711212 C40.23219814 16.60789449 33.83679924 16.60169929 27.44128418 16.58755684 C24.72045913 16.58180096 21.99972654 16.58187654 19.27890015 16.58662224 C15.47931218 16.58952592 11.68029857 16.57306659 7.88078308 16.55122375 C6.18656975 16.55797623 6.18656975 16.55797623 4.45812988 16.56486511 C3.42347092 16.55496048 2.38881195 16.54505585 1.32279968 16.53485107 C0.42463783 16.53242118 -0.47352402 16.52999128 -1.39890289 16.52748775 C-4.32620822 16.06398891 -5.68395144 15.20117064 -7.80085754 13.14717102 C-8.91358493 9.14135244 -9.23737657 7.05989263 -7.42585754 3.27217102 C-4.86428692 -0.07757518 -4.22997501 0.01990167 0 0 Z " fill="#000000" transform="translate(312.8008575439453,383.8528289794922)"/>
<path d="M0 0 C1.01783066 -0.0112793 2.03566132 -0.02255859 3.08433533 -0.03417969 C4.75049644 -0.0220343 4.75049644 -0.0220343 6.45031738 -0.00964355 C7.62465836 -0.01665283 8.79899933 -0.02366211 10.00892639 -0.03088379 C13.22602047 -0.04547028 16.44245602 -0.04205486 19.65954018 -0.02936745 C23.02759806 -0.01923384 26.39561225 -0.02863411 29.76367188 -0.03491211 C35.41955452 -0.04218752 41.07522819 -0.03260382 46.7310791 -0.0135498 C53.26822581 0.00821901 59.8048735 0.00116755 66.34200811 -0.02085543 C71.9565856 -0.03901267 77.57101293 -0.04156625 83.18561029 -0.03110075 C86.53812495 -0.02486749 89.89040511 -0.02402524 93.24290466 -0.0372467 C96.98035631 -0.04738249 100.71684396 -0.03195082 104.45422363 -0.00964355 C105.56499771 -0.01774048 106.67577179 -0.0258374 107.82020569 -0.03417969 C109.34695168 -0.01726074 109.34695168 -0.01726074 110.90454102 0 C112.22966076 0.00226215 112.22966076 0.00226215 113.5815506 0.00457001 C116.72753902 0.67254393 117.94117744 2.05716919 119.95227051 4.50793457 C120.48352051 6.50793457 120.48352051 6.50793457 120.45227051 8.50793457 C120.46773926 9.49793457 120.46773926 9.49793457 120.48352051 10.50793457 C119.7123133 13.41130288 118.23648766 14.59957022 115.95227051 16.50793457 C113.5815506 17.01129913 113.5815506 17.01129913 110.90454102 17.01586914 C109.88671036 17.02714844 108.8688797 17.03842773 107.82020569 17.05004883 C106.15404457 17.03790344 106.15404457 17.03790344 104.45422363 17.0255127 C102.69271217 17.03602661 102.69271217 17.03602661 100.89561462 17.04675293 C97.67852055 17.06133942 94.462085 17.057924 91.24500084 17.04523659 C87.87694295 17.03510298 84.50892877 17.04450325 81.14086914 17.05078125 C75.48498649 17.05805666 69.82931283 17.04847296 64.17346191 17.02941895 C57.63631521 17.00765013 51.09966752 17.01470159 44.5625329 17.03672457 C38.94795542 17.05488181 33.33352808 17.0574354 27.71893072 17.04696989 C24.36641607 17.04073663 21.0141359 17.03989438 17.66163635 17.05311584 C13.92418471 17.06325163 10.18769706 17.04781996 6.45031738 17.0255127 C5.3395433 17.03360962 4.22876923 17.04170654 3.08433533 17.05004883 C2.06650467 17.03876953 1.04867401 17.02749023 0 17.01586914 C-1.32511974 17.01360699 -1.32511974 17.01360699 -2.67700958 17.01129913 C-5.82299801 16.34332521 -7.03663642 14.95869995 -9.04772949 12.50793457 C-9.57897949 10.50793457 -9.57897949 10.50793457 -9.54772949 8.50793457 C-9.56319824 7.51793457 -9.56319824 7.51793457 -9.57897949 6.50793457 C-8.2680638 1.57272254 -4.76198463 0.00812933 0 0 Z " fill="#000000" transform="translate(316.0477294921875,335.4920654296875)"/>
<path d="M0 0 C1.0094165 -0.0112793 2.01883301 -0.02255859 3.05883789 -0.03417969 C4.16026123 -0.02608276 5.26168457 -0.01798584 6.39648438 -0.00964355 C7.56107178 -0.01665283 8.72565918 -0.02366211 9.92553711 -0.03088379 C13.78067771 -0.04850975 17.63508612 -0.03682384 21.49023438 -0.02331543 C24.1653739 -0.026009 26.84049107 -0.02988396 29.515625 -0.03491211 C35.12442987 -0.0421874 40.733024 -0.03260414 46.34179688 -0.0135498 C52.82441344 0.008219 59.30652679 0.00116752 65.78913116 -0.02085543 C71.35700027 -0.03901302 76.92471797 -0.04156609 82.49260712 -0.03110075 C85.81719107 -0.02486765 89.14148689 -0.02559741 92.46606445 -0.0372467 C96.17238595 -0.04738291 99.87773545 -0.03195028 103.58398438 -0.00964355 C104.68540771 -0.01774048 105.78683105 -0.0258374 106.92163086 -0.03417969 C108.43575562 -0.01726074 108.43575562 -0.01726074 109.98046875 0 C110.85650757 0.0015081 111.73254639 0.0030162 112.63513184 0.00457001 C115.76922829 0.67443175 116.98468568 2.06729702 118.99023438 4.50793457 C119.52148438 6.50793457 119.52148438 6.50793457 119.49023438 8.50793457 C119.50570312 9.49793457 119.50570312 9.49793457 119.52148438 10.50793457 C118.75060311 13.41007581 117.27232168 14.5993654 114.99023438 16.50793457 C112.63513184 17.01129913 112.63513184 17.01129913 109.98046875 17.01586914 C108.97105225 17.02714844 107.96163574 17.03842773 106.92163086 17.05004883 C105.82020752 17.0419519 104.71878418 17.03385498 103.58398438 17.0255127 C102.41939697 17.03252197 101.25480957 17.03953125 100.05493164 17.04675293 C96.19979104 17.06437889 92.34538263 17.05269298 88.49023438 17.03918457 C85.81509485 17.04187814 83.13997768 17.0457531 80.46484375 17.05078125 C74.85603888 17.05805654 69.24744475 17.04847328 63.63867188 17.02941895 C57.15605531 17.00765014 50.67394196 17.01470162 44.19133759 17.03672457 C38.62346848 17.05488216 33.05575078 17.05743523 27.48786163 17.04696989 C24.16327768 17.04073679 20.83898186 17.04146655 17.5144043 17.05311584 C13.8080828 17.06325205 10.1027333 17.04781942 6.39648438 17.0255127 C5.29506104 17.03360962 4.1936377 17.04170654 3.05883789 17.05004883 C1.54471313 17.03312988 1.54471313 17.03312988 0 17.01586914 C-0.87603882 17.01436104 -1.75207764 17.01285294 -2.65466309 17.01129913 C-5.78875954 16.34143739 -7.00421693 14.94857212 -9.00976562 12.50793457 C-9.54101562 10.50793457 -9.54101562 10.50793457 -9.50976562 8.50793457 C-9.52523437 7.51793457 -9.52523437 7.51793457 -9.54101562 6.50793457 C-8.23625145 1.59588121 -4.74608273 0.00817039 0 0 Z " fill="#000000" transform="translate(197.009765625,143.4920654296875)"/>
<path d="M0 0 C8.58 0 17.16 0 26 0 C24.35 28.38 22.7 56.76 21 86 C15.72 86 10.44 86 5 86 C3.35 57.62 1.7 29.24 0 0 Z " fill="#000000" transform="translate(151,289)"/>
<path d="M0 0 C2.875 1.4375 2.875 1.4375 5 4 C5.71555259 7.14496906 5.70993955 9.85433287 5 13 C2.30081929 16.35352755 0.68563364 16.90377072 -3.5625 17.5 C-7 17 -7 17 -9.4375 15.5625 C-11.75071492 11.76882754 -11.91245385 8.32423783 -11 4 C-7.77123438 0.10648852 -4.96361941 -0.8272699 0 0 Z " fill="#000000" transform="translate(167,414)"/>
</svg>
