<?xml version="1.0" encoding="UTF-8" standalone="no"?>
<!DOCTYPE svg PUBLIC "-//W3C//DTD SVG 1.1//EN" "http://www.w3.org/Graphics/SVG/1.1/DTD/svg11.dtd">
<svg width="100%" height="100%" viewBox="0 0 58 40" version="1.1" xmlns="http://www.w3.org/2000/svg" xmlns:xlink="http://www.w3.org/1999/xlink" xml:space="preserve" xmlns:serif="http://www.serif.com/" style="fill-rule:evenodd;clip-rule:evenodd;stroke-linejoin:round;stroke-miterlimit:2;">
    <g transform="matrix(1,0,0,1,-4028,-5976)">
        <g transform="matrix(1.71352,0,0,19.5461,1022.65,-4925.74)">
            <g id="email-blue" transform="matrix(0.0415594,0,0,0.00364333,1754.32,557.328)">
                <path d="M702.282,128.446L97.718,128.446C43.839,128.446 0,172.285 0,226.164L0,573.836C0,627.715 43.839,671.554 97.718,671.554L702.282,671.554C756.161,671.554 800,627.715 800,573.836L800,226.175C800.011,172.285 756.172,128.446 702.282,128.446ZM654.533,192.196L400,356.182L145.467,192.196L654.533,192.196ZM702.282,607.815L97.718,607.815C78.986,607.815 63.75,592.568 63.75,573.847L63.75,227.981L380.333,431.556C380.758,431.822 381.215,432.003 381.651,432.247C382.107,432.502 382.575,432.746 383.042,432.98C385.497,434.244 388.026,435.264 390.607,435.934C390.873,436.008 391.139,436.04 391.404,436.104C394.241,436.773 397.11,437.188 399.979,437.188L400.043,437.188C402.911,437.188 405.78,436.784 408.617,436.104C408.883,436.04 409.148,436.008 409.414,435.934C411.996,435.264 414.514,434.244 416.979,432.98C417.446,432.746 417.914,432.502 418.371,432.247C418.806,432.003 419.263,431.822 419.688,431.556L736.271,227.981L736.271,573.836C736.261,592.568 721.014,607.815 702.282,607.815Z" style="fill:rgb(56,80,153);fill-rule:nonzero;"/>
            </g>
        </g>
    </g>
</svg>
