<?xml version="1.0" encoding="UTF-8" standalone="no"?><!DOCTYPE svg PUBLIC "-//W3C//DTD SVG 1.1//EN" "http://www.w3.org/Graphics/SVG/1.1/DTD/svg11.dtd"><svg width="53px" height="53px" version="1.1" xmlns="http://www.w3.org/2000/svg" xmlns:xlink="http://www.w3.org/1999/xlink" xml:space="preserve" xmlns:serif="http://www.serif.com/" style="fill-rule:evenodd;clip-rule:evenodd;stroke-linejoin:round;stroke-miterlimit:2;"><g id="link"><path d="M29.712,35.338L22.823,42.226C22.823,42.226 19.379,45.67 15.935,45.67C11.187,45.67 7.324,41.808 7.324,37.06C7.324,33.616 10.769,30.171 10.769,30.171L17.657,23.283L12.491,18.117L5.602,25.005C5.602,25.005 0.436,30.171 0.436,37.06C0.436,45.605 7.39,52.559 15.935,52.559C22.823,52.559 27.99,47.393 27.99,47.393L34.878,40.504L29.712,35.338Z" style="fill:#385099;fill-rule:nonzero;"/><path d="M22.823,18.117L29.712,11.228C29.712,11.228 33.156,7.784 36.6,7.784C41.348,7.784 45.211,11.647 45.211,16.395C45.211,19.839 41.767,23.283 41.767,23.283L34.878,30.171L40.045,35.338L46.933,28.449C46.933,28.449 52.099,23.283 52.099,16.395C52.099,7.849 45.145,0.896 36.6,0.896C29.712,0.896 24.546,6.062 24.546,6.062L17.657,12.95L22.823,18.117Z" style="fill:#385099;fill-rule:nonzero;"/><path d="M12.491,35.338L34.878,12.95L40.045,18.117L17.657,40.504L12.491,35.338Z" style="fill:#8699d3;fill-rule:nonzero;"/></g></svg>