<?xml version="1.0" encoding="UTF-8" standalone="no"?>
<!DOCTYPE svg PUBLIC "-//W3C//DTD SVG 1.1//EN" "http://www.w3.org/Graphics/SVG/1.1/DTD/svg11.dtd">
<svg width="100%" height="100%" viewBox="0 0 104 98" version="1.1" xmlns="http://www.w3.org/2000/svg" xmlns:xlink="http://www.w3.org/1999/xlink" xml:space="preserve" xmlns:serif="http://www.serif.com/" style="fill-rule:evenodd;clip-rule:evenodd;stroke-linejoin:round;stroke-miterlimit:2;">
    <g transform="matrix(1,0,0,1,-3488,-5954)">
        <g transform="matrix(1.71352,0,0,21.4403,884.649,-6389.2)">
            <g id="logo-white" transform="matrix(2.56705,0,0,0.258137,657.423,567.66)">
                <g transform="matrix(0.751993,0,0,0.597665,3.49761,-159.499)">
                    <path d="M450.062,331.084C448.239,327.202 449.666,322.497 453.448,320.313C457.438,318.01 462.547,319.379 464.851,323.369C466.384,326.024 466.291,329.175 464.881,331.665C467.742,331.689 470.517,333.183 472.05,335.839C474.354,339.828 472.985,344.938 468.995,347.242C465.183,349.443 460.349,348.291 457.916,344.704C458.76,343.34 459.248,341.733 459.248,340.013C459.248,335.083 455.246,331.081 450.316,331.081C450.231,331.081 450.146,331.082 450.062,331.084ZM460.873,325.665C459.837,323.871 457.539,323.255 455.745,324.291C453.95,325.327 453.334,327.625 454.37,329.42C455.406,331.214 457.704,331.83 459.499,330.794C461.293,329.758 461.909,327.46 460.873,325.665ZM468.073,338.135C467.036,336.341 464.738,335.725 462.944,336.761C461.149,337.797 460.534,340.095 461.57,341.89C462.606,343.684 464.904,344.3 466.698,343.264C468.493,342.228 469.109,339.93 468.073,338.135Z" style="fill:rgb(230,83,41);"/>
                </g>
                <g transform="matrix(0.494295,0,0,0.392853,-28.309,-1.50973)">
                    <path d="M760.467,121.406C758.279,125.235 754.156,127.817 749.434,127.817C742.424,127.817 736.734,122.127 736.734,115.118C736.734,108.108 742.424,102.418 749.434,102.418C749.457,102.418 749.481,102.418 749.505,102.418C754.197,102.444 758.29,105.02 760.467,108.829L760.477,108.846C761.531,110.697 762.133,112.837 762.133,115.118C762.133,117.405 761.527,119.551 760.467,121.406ZM749.434,109.406C746.281,109.406 743.722,111.965 743.722,115.118C743.722,118.27 746.281,120.829 749.434,120.829C752.586,120.829 755.145,118.27 755.145,115.118C755.145,111.965 752.586,109.406 749.434,109.406Z" style="fill:white;"/>
                </g>
            </g>
        </g>
    </g>
</svg>
