<?xml version="1.0" encoding="UTF-8" standalone="no"?><!DOCTYPE svg PUBLIC "-//W3C//DTD SVG 1.1//EN" "http://www.w3.org/Graphics/SVG/1.1/DTD/svg11.dtd"><svg width="48px" height="45px" version="1.1" xmlns="http://www.w3.org/2000/svg" xmlns:xlink="http://www.w3.org/1999/xlink" xml:space="preserve" xmlns:serif="http://www.serif.com/" style="fill-rule:evenodd;clip-rule:evenodd;stroke-linejoin:round;stroke-miterlimit:2;"><rect id="Logo" x="0" y="0" width="47.467" height="44.37" style="fill:none;"/><clipPath id="_clip1"><rect x="0" y="0" width="47.467" height="44.37"/></clipPath><g clip-path="url(#_clip1)"><g id="Logo1" serif:id="Logo"><path d="M12.313,18.088C9.539,12.181 11.711,5.024 17.464,1.702C23.535,-1.803 31.308,0.28 34.813,6.35C37.145,10.389 37.003,15.183 34.858,18.971C39.211,19.008 43.433,21.281 45.765,25.321C49.27,31.391 47.187,39.164 41.117,42.669C35.317,46.017 27.963,44.265 24.262,38.808C25.547,36.733 26.288,34.288 26.288,31.671C26.288,24.171 20.199,18.082 12.7,18.082C12.571,18.082 12.442,18.084 12.313,18.088ZM28.761,9.844C27.185,7.114 23.688,6.177 20.958,7.753C18.228,9.33 17.292,12.826 18.868,15.556C20.444,18.286 23.94,19.223 26.67,17.646C29.4,16.07 30.337,12.574 28.761,9.844ZM39.714,28.815C38.137,26.085 34.641,25.148 31.911,26.724C29.181,28.3 28.244,31.796 29.82,34.526C31.397,37.257 34.893,38.193 37.623,36.617C40.353,35.041 41.29,31.545 39.714,28.815Z" style="fill:#e65329;"/><path d="M23.734,37.959C21.545,41.788 17.422,44.37 12.7,44.37C5.691,44.37 0,38.68 0,31.671C0,24.662 5.691,18.971 12.7,18.971C12.724,18.971 12.747,18.971 12.771,18.971C17.463,18.997 21.556,21.573 23.733,25.382L23.743,25.399C24.797,27.25 25.399,29.391 25.399,31.671C25.399,33.958 24.793,36.105 23.734,37.959ZM12.7,25.959C9.547,25.959 6.988,28.518 6.988,31.671C6.988,34.823 9.547,37.383 12.7,37.383C15.852,37.383 18.411,34.823 18.411,31.671C18.411,28.518 15.852,25.959 12.7,25.959Z" style="fill:#153075;"/></g></g></svg>