<?xml version="1.0" encoding="UTF-8" standalone="no"?><!DOCTYPE svg PUBLIC "-//W3C//DTD SVG 1.1//EN" "http://www.w3.org/Graphics/SVG/1.1/DTD/svg11.dtd"><svg width="22px" height="23px" version="1.1" xmlns="http://www.w3.org/2000/svg" xmlns:xlink="http://www.w3.org/1999/xlink" xml:space="preserve" xmlns:serif="http://www.serif.com/" style="fill-rule:evenodd;clip-rule:evenodd;stroke-linejoin:round;stroke-miterlimit:2;"><g><path d="M6.8,20.28L5.895,22.118L16.274,22.118L15.368,20.28L6.8,20.28Z" style="fill:#f6f9fc;fill-rule:nonzero;"/><path d="M20.024,10.226L17.506,10.226L17.506,2.283C17.506,1.35 16.736,0.59 15.803,0.59L6.366,0.59C5.433,0.59 4.663,1.35 4.663,2.283L4.663,10.226L2.145,10.226C1.085,10.226 0.216,11.096 0.216,12.155L0.216,20.189C0.216,21.249 1.085,22.118 2.145,22.118L3.866,22.118L5.424,18.966C5.578,18.658 5.895,18.468 6.239,18.468L15.93,18.468C16.274,18.468 16.591,18.658 16.745,18.966L18.303,22.118L20.024,22.118C21.092,22.118 21.953,21.249 21.953,20.189L21.953,12.155C21.953,11.096 21.092,10.226 20.024,10.226ZM8.385,2.727L13.575,2.727C14.073,2.727 14.481,3.135 14.481,3.633C14.481,4.131 14.073,4.539 13.575,4.539L8.385,4.539C7.887,4.539 7.48,4.131 7.48,3.633C7.48,3.135 7.887,2.727 8.385,2.727ZM8.385,6.377L13.575,6.377C14.073,6.377 14.481,6.785 14.481,7.283C14.481,7.781 14.073,8.188 13.575,8.188L8.385,8.188C7.887,8.188 7.48,7.781 7.48,7.283C7.48,6.785 7.887,6.377 8.385,6.377ZM2.951,14.103C2.453,14.103 2.046,13.704 2.046,13.197C2.046,12.69 2.453,12.291 2.951,12.291C3.458,12.291 3.857,12.69 3.857,13.197C3.857,13.704 3.458,14.103 2.951,14.103ZM6.574,14.103C6.076,14.103 5.668,13.704 5.668,13.197C5.668,12.69 6.076,12.291 6.574,12.291C7.081,12.291 7.48,12.69 7.48,13.197C7.48,13.704 7.081,14.103 6.574,14.103Z" style="fill:#f6f9fc;fill-rule:nonzero;"/></g></svg>