<?xml version="1.0" encoding="UTF-8" standalone="no"?><!DOCTYPE svg PUBLIC "-//W3C//DTD SVG 1.1//EN" "http://www.w3.org/Graphics/SVG/1.1/DTD/svg11.dtd"><svg width="27px" height="27px" version="1.1" xmlns="http://www.w3.org/2000/svg" xmlns:xlink="http://www.w3.org/1999/xlink" xml:space="preserve" xmlns:serif="http://www.serif.com/" style="fill-rule:evenodd;clip-rule:evenodd;stroke-linejoin:round;stroke-miterlimit:2;"><g><path d="M13.977,7.84C13.296,7.84 12.751,8.112 12.411,8.589C12.07,9.065 11.798,9.746 11.798,10.563C11.798,11.312 12.002,11.992 12.343,12.469C12.683,12.945 13.228,13.218 13.908,13.218C14.589,13.218 15.134,12.945 15.474,12.537C15.815,12.06 16.019,11.448 16.019,10.631C16.019,9.814 15.815,9.133 15.474,8.657C15.134,8.112 14.657,7.84 13.977,7.84Z" style="fill:#f0f5ff;fill-rule:nonzero;"/><path d="M23.711,0.42L3.289,0.42C1.791,0.42 0.566,1.645 0.566,3.143L0.566,18.119C0.566,19.617 1.791,20.842 3.289,20.842L10.096,20.842L8.735,24.246L6.352,24.246C5.808,24.246 5.331,24.722 5.331,25.267C5.331,25.812 5.808,26.288 6.352,26.288L20.648,26.288C21.192,26.288 21.669,25.812 21.669,25.267C21.669,24.722 21.192,24.246 20.648,24.246L18.265,24.246L16.904,20.842L23.711,20.842C25.209,20.842 26.434,19.617 26.434,18.119L26.434,3.143C26.434,1.645 25.209,0.42 23.711,0.42ZM7.577,9.474L6.488,10.291L5.467,8.861L4.446,10.291L3.357,9.474L4.378,8.044L2.608,7.499L3.016,6.206L4.718,6.751L4.718,4.981L6.08,4.981L6.08,6.751L7.782,6.206L8.19,7.499L6.488,8.044L7.577,9.474ZM16.768,13.558C16.019,14.307 15.066,14.715 13.908,14.715C12.751,14.715 11.798,14.307 11.117,13.558C10.369,12.809 10.028,11.856 10.028,10.631C10.028,9.337 10.369,8.316 11.117,7.568C11.866,6.751 12.819,6.342 14.045,6.342C15.202,6.342 16.155,6.751 16.836,7.499C17.516,8.248 17.857,9.269 17.857,10.495C17.857,11.72 17.516,12.741 16.768,13.558ZM23.507,14.103C22.962,14.511 22.146,14.715 21.192,14.715C20.239,14.715 19.491,14.579 18.946,14.239L18.946,12.537C19.627,13.082 20.307,13.354 21.192,13.354C21.669,13.354 22.009,13.286 22.214,13.082C22.418,12.945 22.554,12.741 22.554,12.469C22.554,12.265 22.486,12.06 22.282,11.856C22.077,11.652 21.601,11.38 20.784,11.039C19.559,10.495 18.878,9.746 18.878,8.725C18.878,7.976 19.15,7.363 19.763,6.955C20.307,6.546 21.124,6.342 22.009,6.342C22.826,6.342 23.439,6.478 23.984,6.683L23.984,8.316C23.439,7.976 22.826,7.772 22.077,7.772C21.669,7.772 21.329,7.84 21.056,7.976C20.784,8.112 20.648,8.316 20.648,8.589C20.648,8.793 20.716,8.997 20.92,9.133C21.124,9.337 21.533,9.542 22.214,9.814C23.03,10.154 23.575,10.495 23.847,10.903C24.12,11.312 24.324,11.72 24.324,12.265C24.324,13.082 24.052,13.694 23.507,14.103Z" style="fill:#f0f5ff;fill-rule:nonzero;"/></g></svg>