<?xml version="1.0" encoding="UTF-8" standalone="no"?><!DOCTYPE svg PUBLIC "-//W3C//DTD SVG 1.1//EN" "http://www.w3.org/Graphics/SVG/1.1/DTD/svg11.dtd"><svg width="20px" height="24px" version="1.1" xmlns="http://www.w3.org/2000/svg" xmlns:xlink="http://www.w3.org/1999/xlink" xml:space="preserve" xmlns:serif="http://www.serif.com/" style="fill-rule:evenodd;clip-rule:evenodd;stroke-linejoin:round;stroke-miterlimit:2;"><g><path d="M18.633,0.708L1.451,0.708C0.975,0.709 0.583,1.101 0.582,1.577L0.582,4.098C0.586,5.654 1.867,6.932 3.423,6.932L6.299,6.932L6.299,8.705L5.626,8.705C3.598,8.705 1.938,10.355 1.938,12.383L1.938,20.322C1.938,22.35 3.598,24 5.626,24L14.458,24C16.486,24 18.146,22.35 18.146,20.322L18.146,12.383C18.146,10.355 16.486,8.705 14.458,8.705L13.785,8.705L13.785,6.931L16.66,6.931C18.216,6.931 19.498,5.653 19.503,4.097L19.503,1.578C19.502,1.102 19.11,0.71 18.633,0.709L18.633,0.708ZM14.934,16.362C14.934,19.06 12.74,21.244 10.032,21.244C7.334,21.244 5.151,19.06 5.151,16.362C5.151,13.654 7.334,11.461 10.032,11.461C12.74,11.461 14.934,13.654 14.934,16.362Z" style="fill:#f0f5ff;fill-rule:nonzero;"/><path d="M11.15,15.357L11.15,13.461C11.15,12.854 10.65,12.354 10.042,12.354C9.435,12.354 8.935,12.854 8.935,13.461L8.935,15.357C8.323,15.734 7.916,16.406 7.916,17.179C7.916,18.361 8.861,19.306 10.042,19.306C11.223,19.306 12.168,18.361 12.168,17.179C12.168,16.406 11.759,15.734 11.15,15.357Z" style="fill:#f0f5ff;fill-rule:nonzero;"/></g></svg>