<?xml version="1.0" encoding="UTF-8" standalone="no"?><!DOCTYPE svg PUBLIC "-//W3C//DTD SVG 1.1//EN" "http://www.w3.org/Graphics/SVG/1.1/DTD/svg11.dtd"><svg width="67px" height="71px" version="1.1" xmlns="http://www.w3.org/2000/svg" xmlns:xlink="http://www.w3.org/1999/xlink" xml:space="preserve" xmlns:serif="http://www.serif.com/" style="fill-rule:evenodd;clip-rule:evenodd;stroke-linejoin:round;stroke-miterlimit:2;"><g><path d="M32.704,15.31C44.38,15.31 53.844,24.774 53.844,36.449C53.844,48.125 44.38,57.589 32.704,57.589C21.03,57.589 11.565,48.125 11.565,36.449C11.565,24.774 21.03,15.31 32.704,15.31ZM61.429,2.253C63.558,2.253 65.284,3.979 65.284,6.108C65.284,8.237 63.558,9.963 61.429,9.963C59.3,9.963 57.574,8.237 57.574,6.108C57.574,3.979 59.3,2.253 61.429,2.253ZM4.725,62.936C6.443,62.936 7.834,64.328 7.834,66.044C7.834,67.761 6.443,69.153 4.725,69.153C3.009,69.153 1.618,67.761 1.618,66.044C1.618,64.328 3.009,62.936 4.725,62.936Z" style="fill:#fff;"/><path d="M32.704,20.781C41.358,20.781 48.373,27.797 48.373,36.449C48.373,45.101 41.358,52.118 32.704,52.118C24.051,52.118 17.036,45.101 17.036,36.449C17.036,27.797 24.051,20.781 32.704,20.781Z" style="fill:#e1e6ef;fill-opacity:0.48;fill-rule:nonzero;"/><path d="M56.331,54.084C60.195,49.001 62.3,42.874 62.3,36.325C62.3,28.366 59.191,21.03 53.595,15.434C44.518,6.357 30.84,4.243 19.399,9.963C18.653,10.336 17.658,10.087 17.286,9.217C16.913,8.471 17.16,7.475 18.031,7.103C24.123,3.994 30.963,3 37.678,3.994C44.642,4.989 50.86,8.222 55.833,13.196C62.051,19.413 65.409,27.495 65.409,36.325C65.409,43.964 62.895,51.046 58.189,56.844L61.429,56.844C62.3,56.844 63.046,57.589 63.046,58.459C62.797,59.33 62.051,59.951 61.305,59.951L54.714,59.951C54.58,59.951 54.446,59.935 54.312,59.897C53.626,59.711 53.097,59.067 53.097,58.335L53.097,51.744C53.097,50.873 53.844,50.128 54.714,50.128C55.586,50.128 56.331,50.873 56.331,51.744L56.331,54.084ZM9.079,18.688C5.215,23.772 3.11,29.9 3.11,36.449C3.11,44.408 6.218,51.744 11.813,57.34C20.768,66.294 34.322,68.531 45.636,63.06C46.383,62.687 47.377,63.06 47.75,63.807C48.124,64.553 47.75,65.547 47.005,65.921C42.404,68.035 37.555,69.153 32.704,69.153C24.249,69.153 15.917,65.795 9.575,59.577C3.358,53.362 -0,45.278 -0,36.449C-0,28.81 2.515,21.728 7.22,15.932L3.979,15.932C3.11,15.932 2.363,15.185 2.363,14.314C2.363,13.444 3.11,12.699 3.979,12.699L10.569,12.699C11.111,12.699 11.605,12.988 11.901,13.415C12.279,13.857 12.374,14.453 12.187,14.973L12.187,20.905C12.187,21.9 11.565,22.646 10.695,22.646C9.824,22.646 9.079,21.9 9.079,21.03L9.079,18.688ZM61.801,63.309C62.051,63.558 62.3,63.931 62.3,64.428C62.3,64.801 62.175,65.299 61.801,65.547C61.429,65.795 61.182,66.044 60.683,66.044C59.813,66.044 59.067,65.299 59.067,64.428C59.067,64.054 59.191,63.558 59.564,63.309C59.813,63.06 60.186,62.811 60.683,62.811C61.182,62.811 61.429,63.06 61.801,63.309ZM52.476,68.035C52.724,68.282 52.973,68.656 52.973,69.153C52.973,69.527 52.85,70.023 52.476,70.272C52.103,70.521 51.854,70.77 51.357,70.77C50.487,70.77 49.74,70.023 49.74,69.153C49.74,68.78 49.865,68.282 50.238,68.035C50.487,67.786 50.86,67.536 51.357,67.536C51.854,67.536 52.103,67.662 52.476,68.035ZM5.845,4.243C6.093,4.492 6.342,4.864 6.342,5.363C6.342,5.859 6.218,6.232 5.845,6.481C5.472,6.73 5.224,6.978 4.725,6.978C3.855,6.978 3.11,6.232 3.11,5.363C3.11,4.989 3.233,4.492 3.606,4.243C3.855,3.994 4.228,3.745 4.725,3.745C5.224,3.745 5.472,3.994 5.845,4.243ZM32.704,59.205C26.611,59.205 20.891,56.844 16.664,52.491C7.834,43.661 7.834,29.237 16.664,20.284C21.015,15.932 26.611,13.569 32.704,13.569C38.798,13.569 44.518,15.932 48.746,20.284C57.574,29.113 57.574,43.537 48.746,52.491C44.518,56.844 38.798,59.205 32.704,59.205ZM32.704,16.803C27.482,16.803 22.508,18.791 18.778,22.522C11.068,30.231 11.068,42.667 18.778,50.377C22.508,54.107 27.356,56.096 32.704,56.096C38.051,56.096 42.901,54.107 46.632,50.377C54.342,42.667 54.342,30.231 46.632,22.646C42.901,18.791 37.928,16.803 32.704,16.803ZM32.704,53.734C28.104,53.734 23.751,51.993 20.519,48.636C17.286,45.403 15.419,41.049 15.419,36.449C15.419,31.849 17.16,27.495 20.519,24.262C23.751,21.03 28.104,19.165 32.704,19.165C37.306,19.165 41.658,20.905 44.891,24.262C48.124,27.495 49.989,31.849 49.989,36.449C49.989,41.049 48.247,45.403 44.891,48.636C41.658,51.869 37.306,53.734 32.704,53.734ZM32.704,22.273C28.974,22.273 25.368,23.766 22.756,26.377C20.145,28.988 18.653,32.594 18.653,36.325C18.653,40.055 20.145,43.661 22.756,46.273C25.368,48.885 28.974,50.377 32.704,50.377C36.435,50.377 40.041,48.885 42.651,46.273C45.264,43.661 46.756,40.055 46.756,36.325C46.756,32.594 45.264,28.988 42.651,26.377C40.041,23.766 36.435,22.273 32.704,22.273ZM31.896,35.679L35.004,35.679L35.004,38.789L31.896,38.789L31.896,35.679ZM4.725,70.645C2.114,70.645 -0,68.531 -0,65.921C-0,63.309 2.114,61.195 4.725,61.195C7.336,61.195 9.451,63.309 9.451,65.921C9.451,68.531 7.213,70.645 4.725,70.645ZM4.725,64.428C3.855,64.428 3.11,65.174 3.11,66.044C3.11,66.915 3.855,67.662 4.725,67.662C5.596,67.662 6.342,66.915 6.342,66.044C6.218,65.174 5.596,64.428 4.725,64.428ZM61.429,11.579C58.445,11.579 55.958,9.093 55.958,6.108C55.958,3.123 58.445,0.637 61.429,0.637C64.414,0.637 66.9,3.123 66.9,6.108C66.9,9.093 64.414,11.579 61.429,11.579ZM61.429,3.869C60.186,3.869 59.067,4.864 59.067,6.232C59.067,7.6 60.06,8.595 61.429,8.595C62.672,8.595 63.792,7.6 63.792,6.232C63.792,4.864 62.672,3.869 61.429,3.869Z" style="fill:#a6a9ae;fill-opacity:0.39;"/></g></svg>