<?xml version="1.0" encoding="UTF-8" standalone="no"?>
<svg
   version="1.0"
   viewBox="0 0 84 84.000001"
   id="svg2"
   xml:space="preserve"
   width="84"
   height="84"
   sodipodi:docname="icon.svg"
   inkscape:version="1.3.1 (91b66b0783, 2023-11-16)"
   inkscape:export-filename="icon.png"
   inkscape:export-xdpi="96"
   inkscape:export-ydpi="96"
   xmlns:inkscape="http://www.inkscape.org/namespaces/inkscape"
   xmlns:sodipodi="http://sodipodi.sourceforge.net/DTD/sodipodi-0.dtd"
   xmlns="http://www.w3.org/2000/svg"
   xmlns:svg="http://www.w3.org/2000/svg"><sodipodi:namedview
     id="namedview1"
     pagecolor="#ffffff"
     bordercolor="#000000"
     borderopacity="0.25"
     inkscape:showpageshadow="2"
     inkscape:pageopacity="0.0"
     inkscape:pagecheckerboard="0"
     inkscape:deskcolor="#d1d1d1"
     inkscape:zoom="8"
     inkscape:cx="18.8125"
     inkscape:cy="56.0625"
     inkscape:window-width="1920"
     inkscape:window-height="1013"
     inkscape:window-x="-9"
     inkscape:window-y="-9"
     inkscape:window-maximized="1"
     inkscape:current-layer="svg2" /><defs
     id="defs2"><inkscape:path-effect
       effect="fillet_chamfer"
       id="path-effect2"
       is_visible="true"
       lpeversion="1"
       nodesatellites_param="F,0,0,1,0,18,0,7 @ F,0,0,1,0,18,0,7 @ F,0,0,1,0,18,0,7 @ F,0,0,1,0,18,0,7 @ F,0,0,1,0,18,0,7 @ F,0,0,1,0,18,0,7 @ F,0,0,1,0,18,0,7 @ F,0,0,1,0,18,0,7 @ F,0,0,1,0,18,0,7 @ F,0,0,1,0,18,0,7 @ F,0,0,1,0,18,0,7 @ F,0,0,1,0,18,0,7 @ F,0,0,1,0,18,0,7 @ F,0,0,1,0,18,0,7 @ F,0,0,1,0,18,0,7 @ F,0,0,1,0,18,0,7 @ F,0,0,1,0,18,0,7 @ F,0,0,1,0,18,0,7 @ F,0,0,1,0,18,0,7 | F,0,0,1,0,18,0,7 @ F,0,0,1,0,18,0,7 @ F,0,0,1,0,18,0,7 @ F,0,0,1,0,18,0,7 @ F,0,0,1,0,18,0,7 @ F,0,0,1,0,18,0,7 @ F,0,0,1,0,18,0,7 @ F,0,0,1,0,18,0,7 @ F,0,0,1,0,18,0,7 | F,0,0,1,0,18,0,7 @ F,0,0,1,0,18,0,7 @ F,0,0,1,0,18,0,7 @ F,0,0,1,0,18,0,7 @ F,0,0,1,0,18,0,7 @ F,0,0,1,0,18,0,7 @ F,0,0,1,0,18,0,7 @ F,0,0,1,0,18,0,7 | F,0,0,1,0,18,0,7 @ F,0,0,1,0,18,0,7 @ F,0,0,1,0,18,0,7 @ F,0,0,1,0,18,0,7 @ F,0,0,1,0,18,0,7 @ F,0,0,1,0,18,0,7 @ F,0,0,1,0,18,0,7 @ F,0,0,1,0,18,0,7 @ F,0,0,1,0,18,0,7 @ F,0,0,1,0,18,0,7 @ F,0,0,1,0,18,0,7 @ F,0,0,1,0,18,0,7 @ F,0,0,1,0,18,0,7 @ F,0,0,1,0,18,0,7 @ F,0,0,1,0,18,0,7 @ F,0,0,1,0,18,0,7 | F,0,0,1,0,18,0,7 @ F,0,0,1,0,18,0,7 | F,0,0,1,0,18,0,7 @ F,0,0,1,0,18,0,7 @ F,0,0,1,0,18,0,7 | F,0,0,1,0,18,0,7 @ F,0,0,1,0,18,0,7 @ F,0,0,1,0,18,0,7 @ F,0,0,1,0,18,0,7 @ F,0,0,1,0,18,0,7 @ F,0,0,1,0,18,0,7 @ F,0,0,1,0,18,0,7 @ F,0,0,1,0,18,0,7 @ F,0,0,1,0,18,0,7 @ F,0,0,1,0,18,0,7 @ F,0,0,1,0,18,0,7 @ F,0,0,1,0,18,0,7 @ F,0,0,1,0,18,0,7 | F,0,0,1,0,18,0,7 @ F,0,0,1,0,18,0,7 @ F,0,0,1,0,18,0,7 @ F,0,0,1,0,18,0,7 @ F,0,0,1,0,18,0,7 @ F,0,0,1,0,18,0,7 @ F,0,0,1,0,18,0,7 | F,0,0,1,0,18,0,7 @ F,0,0,1,0,18,0,7 @ F,0,0,1,0,18,0,7 @ F,0,0,1,0,18,0,7 @ F,0,0,1,0,18,0,7 @ F,0,0,1,0,18,0,7 @ F,0,0,1,0,18,0,7 @ F,0,0,1,0,18,0,7 @ F,0,0,1,0,18,0,7 | F,0,0,1,0,18,0,7 @ F,0,0,1,0,18,0,7 @ F,0,0,1,0,18,0,7 @ F,0,0,1,0,18,0,7 @ F,0,0,1,0,18,0,7"
       radius="18"
       unit="px"
       method="auto"
       mode="F"
       chamfer_steps="7"
       flexible="false"
       use_knot_distance="true"
       apply_no_radius="true"
       apply_with_radius="true"
       only_selected="false"
       hide_knots="false" /><filter
       inkscape:menu-tooltip="In and out glow with a possible offset and colorizable flood"
       inkscape:menu="Shadows and Glows"
       inkscape:label="Cutout Glow"
       style="color-interpolation-filters:sRGB;"
       id="filter124"
       x="-0.00939929"
       y="-0.01110585"
       width="1.022715"
       height="1.0268391"><feOffset
         dy="3"
         dx="3"
         id="feOffset124" /><feGaussianBlur
         stdDeviation="3"
         result="blur"
         id="feGaussianBlur124" /><feFlood
         flood-color="rgb(0,0,0)"
         flood-opacity="1"
         result="flood"
         id="feFlood124" /><feComposite
         in="flood"
         in2="SourceGraphic"
         operator="in"
         result="composite"
         id="feComposite124" /><feBlend
         in="blur"
         in2="composite"
         mode="normal"
         id="feBlend124" /></filter><filter
       style="color-interpolation-filters:sRGB;"
       inkscape:label="Drop Shadow"
       id="filter151"
       x="0"
       y="0"
       width="1"
       height="1" /><filter
       style="color-interpolation-filters:sRGB;"
       inkscape:label="Drop Shadow"
       id="filter25"
       x="-0.0078820033"
       y="-0.0093130804"
       width="1.0297946"
       height="1.0371263"><feFlood
         result="flood"
         in="SourceGraphic"
         flood-opacity="0.592157"
         flood-color="rgb(7,0,0)"
         id="feFlood24" /><feGaussianBlur
         result="blur"
         in="SourceGraphic"
         stdDeviation="2.515723"
         id="feGaussianBlur24" /><feOffset
         result="offset"
         in="blur"
         dx="10.747663"
         dy="11.993770"
         id="feOffset24" /><feComposite
         result="comp1"
         operator="in"
         in="flood"
         in2="offset"
         id="feComposite24" /><feComposite
         result="comp2"
         operator="over"
         in="SourceGraphic"
         in2="comp1"
         id="feComposite25" /></filter></defs><path
     style="display:inline;mix-blend-mode:normal;fill:#eb7e09;fill-opacity:0.89803922;fill-rule:evenodd;stroke:#3d99cb;stroke-width:0;stroke-linejoin:round;stroke-miterlimit:3.9"
     d="M 0,0 H 84 V 84 H 0 Z"
     id="rect1" /><path
     id="rect28"
     style="display:inline;fill:#0d0d0d;fill-opacity:0.421462;fill-rule:evenodd;stroke:#354046;stroke-width:0;stroke-linejoin:round;stroke-miterlimit:3.9;stroke-opacity:1"
     d="m 12.733446,40.780174 h -53.51362 L -59.39697,59.39697 -31.698271,87.095668 h 44.431717 z"
     transform="rotate(-45)" /><g
     id="g8"><path
       style="fill:#ffffff;fill-opacity:1;fill-rule:evenodd;stroke:#354046;stroke-width:0;stroke-linejoin:round;stroke-miterlimit:3.9"
       d="m 27.067531,67.196274 c -0.08584,-0.01905 -0.247812,-0.169626 -0.359928,-0.33462 l -0.203847,-0.299987 1.036225,-5.681572 c 1.169307,-6.411253 1.645046,-8.909888 1.708527,-8.973369 0.02392,-0.02392 0.218685,-0.06324 0.432803,-0.08738 0.484039,-0.05456 0.665748,0.113001 0.940899,0.86763 0.296761,0.813895 0.471269,0.967346 1.199974,1.055178 0.338987,0.04086 0.775439,0.124505 0.969893,0.185882 0.513494,0.162075 2.091948,0.135552 2.784233,-0.04678 0.315988,-0.08323 1.291787,-0.386192 2.168441,-0.673258 2.064395,-0.676 2.890464,-0.821208 4.681656,-0.822949 2.017588,-0.002 3.66221,0.319054 5.435883,1.061036 0.866981,0.362684 1.574624,0.521568 2.698247,0.605823 0.84912,0.06367 1.957639,-0.05818 2.467581,-0.27125 0.683014,-0.285382 1.108548,-0.840288 1.137377,-1.483166 l 0.01656,-0.369337 0.589498,-0.04419 0.589497,-0.04419 0.269831,0.883883 c 0.148405,0.486136 0.33399,1.162307 0.412408,1.502602 0.140717,0.61064 1.00523,5.613163 1.237585,7.16131 0.06582,0.438541 0.283431,1.452798 0.483584,2.253903 0.439431,1.75881 0.533128,2.734641 0.308106,3.20884 -0.09382,0.197707 -0.216736,0.32484 -0.314071,0.32484 -0.278541,0 -0.668386,-0.415892 -1.012669,-1.080327 -0.453007,-0.874265 -0.70199,-1.129382 -1.102231,-1.129382 -0.316821,0 -0.558196,0.120261 -0.975402,0.485974 -0.252472,0.221311 -0.932147,0.498115 -1.767767,0.719939 -0.808063,0.214508 -2.791924,0.214926 -3.780209,7.96e-4 -1.020209,-0.221048 -2.008801,-0.568677 -3.246665,-1.14166 -1.276876,-0.591042 -2.076108,-0.772155 -3.407438,-0.772155 -1.666651,0 -3.18691,0.396358 -5.319844,1.386977 -1.15969,0.538606 -1.962171,0.726253 -3.127275,0.731259 -1.409482,0.0061 -3.306363,-0.480025 -4.795962,-1.228981 -0.392627,-0.197409 -0.729113,-0.358925 -0.747747,-0.358925 -0.01863,0 -0.05481,0.230796 -0.08039,0.512879 -0.09874,1.0889 -0.752614,2.022266 -1.327369,1.894736 z m 25.435147,-3.548295 c 0.388909,-0.100876 1.293785,-0.408194 2.010835,-0.68293 l 1.303728,-0.499521 -0.0019,-0.716687 c -0.0021,-0.789018 -0.19857,-1.379863 -0.515063,-1.549245 -0.439955,-0.235457 -0.957508,-0.09581 -1.804674,0.486937 -0.556997,0.383147 -1.530147,0.603945 -2.628069,0.596282 -1.40048,-0.0098 -2.576379,-0.319297 -4.807786,-1.265521 -0.782976,-0.332019 -1.662241,-0.655672 -1.953923,-0.719229 -0.291681,-0.06356 -1.087176,-0.116927 -1.767767,-0.118601 -1.513995,-0.0037 -1.993491,0.112684 -4.414008,1.071588 -2.028894,0.80376 -3.08994,1.091272 -4.016315,1.0883 -0.895651,-0.0029 -1.276286,-0.100475 -2.483997,-0.636949 -1.451407,-0.644725 -2.204123,-0.674727 -2.466751,-0.09832 -0.05398,0.11848 -0.09815,0.527024 -0.09815,0.907876 0,0.6873 0.0023,0.694212 0.308868,0.928042 0.997401,0.760755 2.752977,1.276619 4.596686,1.350705 1.550043,0.06229 2.052506,-0.05231 4.414085,-1.006698 2.345711,-0.947979 2.838807,-1.091997 3.938614,-1.15035 1.179487,-0.06258 1.54205,0.02824 3.745759,0.938336 2.807972,1.159643 3.526233,1.347131 4.960493,1.294842 0.586768,-0.02139 1.252639,-0.108168 1.679378,-0.218856 z M 35.915512,58.47295 c 1.026399,-0.217554 1.920823,-0.544875 3.063749,-1.121201 1.300599,-0.655832 2.090365,-0.871595 3.190341,-0.871595 1.38371,0 2.649255,0.345801 4.54364,1.241517 1.328004,0.627916 2.207477,0.867173 3.452539,0.939251 1.427191,0.08262 2.755157,-0.172015 4.303538,-0.825198 l 0.552427,-0.233041 -3.3e-4,-0.760138 c -3.63e-4,-0.833753 -0.138779,-1.190078 -0.572748,-1.474426 -0.358833,-0.235116 -1.008211,-0.116562 -1.721199,0.314232 -0.469917,0.283928 -0.723421,0.373376 -1.243131,0.438633 -1.297195,0.162881 -2.306414,-0.05798 -5.036261,-1.10216 -2.245107,-0.858763 -2.726178,-0.968397 -4.198447,-0.956805 -1.518365,0.01196 -1.986612,0.126099 -4.276591,1.042497 -1.849905,0.740291 -2.707489,1.000415 -3.545778,1.075513 -0.81108,0.07266 -1.757371,-0.144106 -2.423198,-0.555078 -0.37808,-0.233364 -0.658353,-0.337157 -0.983163,-0.364093 -0.410049,-0.034 -0.485234,-0.01054 -0.77148,0.24079 -0.489976,0.430204 -0.588602,1.286423 -0.237056,2.057984 0.157943,0.346646 1.680709,0.907589 2.912295,1.072805 0.559429,0.07505 2.329717,-0.01935 2.990853,-0.159487 z"
       id="path7" /><path
       style="fill:#ffffff;fill-opacity:1;fill-rule:evenodd;stroke:#354046;stroke-width:0;stroke-linejoin:round;stroke-miterlimit:3.9"
       d="m 40.44506,67.093194 c -0.331516,-0.209841 1.895942,-0.590295 2.6352,-0.450098 0.523085,0.0992 1.158108,0.347734 1.158108,0.453257 0,0.103248 -3.629977,0.100225 -3.793308,-0.0032 z"
       id="path8" /><path
       style="fill:#ffffff;fill-opacity:1;fill-rule:evenodd;stroke:#354046;stroke-width:0;stroke-linejoin:round;stroke-miterlimit:3.9"
       d="m 53.720011,36.321818 c -2.45942,-2.480536 -2.817607,-2.814551 -3.611843,-3.368097 -0.443862,-0.309352 -0.462589,-0.3159 -0.812704,-0.284153 -0.698626,0.06335 -1.134745,-0.248309 -2.296584,-1.641182 -0.495123,-0.593578 -0.984395,-1.11242 -1.198856,-1.271309 -0.199285,-0.147644 -0.536954,-0.489274 -0.750377,-0.759177 -1.146346,-1.449717 -2.60892,-2.021378 -3.747019,-1.464558 -0.405405,0.198347 -0.939649,0.70972 -1.186231,1.13545 -0.09555,0.164977 -0.231145,0.340258 -0.301315,0.389513 -0.237462,0.166685 -1.227003,1.156761 -1.835191,1.836182 -1.065595,1.190402 -1.848077,1.732799 -2.630865,1.82365 -0.290946,0.03377 -0.471243,0.102939 -0.770663,0.295662 -0.635104,0.408786 -1.349073,1.043968 -2.172754,1.932986 -1.207493,1.303276 -2.622462,2.694027 -2.998777,2.947452 -0.590011,0.397337 -0.913706,0.275054 -1.058447,-0.39985 -0.09766,-0.455372 -0.08255,-1.164556 0.05714,-2.681887 0.113851,-1.236644 0.123792,-1.865583 0.124717,-7.890625 l 10e-4,-6.546875 h 13.875 13.875 v 9.1875 c 0,7.22791 -0.01639,9.1875 -0.07686,9.1875 -0.04227,0 -1.160243,-1.092682 -2.484375,-2.428182 z"
       id="path4" /><path
       style="fill:#ffffff;fill-opacity:1;fill-rule:evenodd;stroke:#354046;stroke-width:0;stroke-linejoin:round;stroke-miterlimit:3.9"
       d="m 49.375359,38.651332 c -0.224518,-0.228974 -0.567314,-0.551414 -0.761768,-0.716534 -0.194454,-0.16512 -0.939824,-0.837126 -1.656377,-1.493347 -0.716554,-0.656222 -1.584888,-1.423025 -1.929633,-1.704009 -0.617625,-0.503394 -1.470892,-1.027984 -1.547482,-0.951394 -0.02158,0.02157 0.178276,0.738916 0.444114,1.594092 0.265837,0.855176 0.510524,1.759786 0.543749,2.010244 0.05642,0.425329 0.04847,0.453407 -0.12048,0.425506 -0.200035,-0.03303 -1.182236,-0.886604 -2.272688,-1.975054 -1.094099,-1.092091 -1.543538,-2.173981 -1.29141,-3.108683 0.05479,-0.203106 0.242361,-0.580966 0.416832,-0.839689 0.174472,-0.258724 0.470954,-0.768717 0.658849,-1.133319 0.187895,-0.364602 0.402121,-0.739798 0.476057,-0.833768 0.131209,-0.166763 0.143442,-0.164382 0.510605,0.09935 0.206896,0.148612 0.628997,0.563583 0.938001,0.922157 1.243574,1.443064 2.079812,2.300982 2.404088,2.466416 0.398241,0.203167 0.949963,0.226926 1.190207,0.05126 0.203375,-0.148712 0.3879,-0.03808 1.452437,0.870818 0.926018,0.79063 2.413785,2.528835 2.279457,2.663163 -0.02832,0.02832 -0.260735,-0.113914 -0.516483,-0.316071 -1.281096,-1.012649 -1.718045,-0.87649 -1.130426,0.352255 0.576436,1.205361 0.765639,2.032932 0.464778,2.032932 -0.07932,0 -0.327909,-0.187343 -0.552427,-0.416318 z"
       id="path5" /><path
       style="fill:#ffffff;fill-opacity:1;fill-rule:evenodd;stroke:#354046;stroke-width:0;stroke-linejoin:round;stroke-miterlimit:3.9"
       d="m 21.94675,60.263321 c -1.637199,-0.148468 -3.162598,-1.064585 -3.776605,-2.268139 -0.499147,-0.978407 -0.492518,-0.862719 -0.491983,-8.586096 5.4e-4,-7.807561 -0.01289,-7.591037 0.538287,-8.678732 0.65574,-1.294041 2.467359,-2.274619 4.212094,-2.279888 l 0.508233,-0.0015 v 0.702756 c 0,1.577689 0.545561,2.831566 1.427857,3.28168 0.339957,0.173433 0.599066,0.176747 17.865425,0.228527 13.122037,0.03935 17.613761,0.0269 17.892096,-0.0496 0.816224,-0.224342 1.19943,-0.786507 1.663109,-2.439786 0.366196,-1.305698 0.54636,-1.654598 0.938213,-1.816908 0.356974,-0.147864 0.766505,-0.04153 1.874509,0.486708 0.972959,0.463857 1.644003,1.11241 2.083009,2.013193 0.598516,1.228081 0.582841,1.005157 0.579706,8.24423 -0.0031,7.207376 -0.03618,7.822701 -0.470168,8.750103 -0.78772,1.683319 -2.605179,2.539983 -5.315489,2.505471 -0.818073,-0.01042 -0.845648,-0.01759 -1.119032,-0.290971 -0.31073,-0.31073 -0.422448,-0.643243 -0.566664,-1.686588 -0.05355,-0.38739 -0.170137,-0.923106 -0.259091,-1.190481 -0.264403,-0.794732 -0.289843,-1.362132 -0.132574,-2.956778 0.211016,-2.139604 0.08719,-2.899755 -0.620885,-3.811617 -0.450506,-0.580163 -0.92829,-0.954293 -1.469313,-1.15055 -0.346099,-0.125548 -1.876716,-0.138559 -15.01366,-0.127628 l -14.628271,0.01217 -0.441942,0.204374 c -0.502028,0.232162 -1.046054,0.743088 -1.282762,1.204716 -0.363986,0.709848 -0.450866,1.305358 -0.528144,3.620107 -0.08068,2.416617 -0.261092,4.256246 -0.493855,5.035701 -0.09542,0.319541 -0.258259,0.597514 -0.479802,0.819057 l -0.335357,0.335357 -0.738137,-0.02356 c -0.405975,-0.013 -1.044437,-0.05138 -1.418804,-0.08533 z M 56.235167,48.036332 c 0.764214,-0.319309 1.309829,-1.047503 1.408387,-1.879677 0.17758,-1.499386 -1.164579,-2.791752 -2.599945,-2.503489 -1.353266,0.271774 -2.101904,1.6291 -1.682139,3.049821 0.133026,0.450236 0.872893,1.216366 1.306723,1.353107 0.456307,0.143825 1.197836,0.134474 1.566974,-0.01976 z m 6.923948,-0.107751 c 1.664944,-0.844378 1.636598,-3.239427 -0.04868,-4.112775 -0.489406,-0.253621 -1.37137,-0.253079 -1.857314,0.0011 -1.683533,0.880734 -1.712472,3.268426 -0.04983,4.111635 0.354532,0.179802 0.609066,0.243068 0.977912,0.243068 0.368847,0 0.62338,-0.06327 0.977913,-0.243068 z"
       id="path6" /></g><g
     id="g1"
     transform="matrix(0.07290902,0,0,0.0804286,-12.509887,-19.872253)"
     style="display:inline;filter:url(#filter25)"><path
       id="path114"
       style="display:inline;fill:#385099;fill-opacity:1;stroke-width:1.34578"
       d="m 962.80799,466.99499 c -143.06171,1.36182 -286.20458,-0.93988 -429.28609,1.11706 -22.16061,15.24414 -9.97235,47.63619 -11.77709,70.68745 -0.56415,50.17412 -0.0301,100.37392 0.0169,150.56372 -43.28129,-0.008 -93.01994,-2.16572 -125.64461,31.83963 -34.46221,30.73962 -23.55253,78.89396 -25.04909,119.68789 0.34155,40.35875 -0.98368,81.2507 1.16015,121.32711 15.55491,48.92425 69.43926,73.97265 118.08404,69.53155 27.23922,7.4665 -4.531,51.4869 -2.0917,74.6681 2.42966,14.3168 21.05459,6.6408 31.50119,8.5537 164.12564,0.2608 328.25138,0.4399 492.37721,0.5757 15.3852,-20.2951 -7.2328,-49.6566 -5.653,-73.0496 -1.7373,-22.9103 38.8288,-3.3485 52.9347,-13.7656 43.6286,-9.4426 84.4199,-49.39076 76.6862,-96.88823 -0.2091,-57.21842 3.2395,-114.63949 -1.3033,-171.71664 -14.8315,-51.09204 -73.5281,-75.53924 -123.254,-70.52059 -29.79886,9.18758 -31.8452,-14.93704 -27.56865,-38.87074 -0.18305,-58.15257 0.49062,-116.34255 -1.44336,-174.46386 -4.7419,-7.68975 -11.18974,-9.83514 -19.68953,-9.27665 z M 562.66782,499.75405 H 943.6542 v 230.50336 c -32.03814,-23.77959 -56.96425,-57.52048 -91.67033,-77.17442 -23.46964,7.57802 -37.21593,-29.58731 -57.59157,-38.76819 -19.76758,-27.45904 -54.23601,-41.37605 -74.67331,-6.69822 -22.45063,13.73225 -40.59262,48.08722 -66.85423,46.68061 -27.9271,13.14269 -46.5907,41.03364 -71.28427,59.64141 -35.45572,30.58236 -18.20756,-36.85516 -19.10404,-57.24161 0.35916,-52.31359 0.13477,-104.62881 0.19137,-156.94294 z m 191.08254,116.83014 c 23.78232,9.50509 47.35921,61.86646 69.70254,44.44088 18.17854,9.00551 47.476,37.08632 54.16759,51.77218 -11.75735,-8.79774 -43.30286,-33.24122 -25.71698,-2.96265 9.56767,16.77745 11.84906,36.0405 -8.63414,13.30366 -24.01138,-16.86469 -55.35488,-49.02512 -74.91927,-55.6306 3.37039,15.85476 31.60805,75.42169 -2.9702,39.84982 -22.77918,-15.79189 -51.98503,-41.90386 -25.34424,-69.1204 4.38767,-7.24263 7.52348,-15.66731 13.7147,-21.65289 z M 487.52601,724.28356 c -4.44102,23.34458 6.3673,56.28067 34.97665,52.34977 156.40136,0.27531 312.80679,0.43867 469.21015,0.58941 41.28239,-4.46424 12.84009,-75.10746 62.84419,-48.81008 32.3567,8.98892 43.7244,42.95078 40.5469,73.44356 -0.929,50.29739 2.5331,100.9259 -2.1587,151.00174 -5.8803,37.59562 -48.7155,47.36384 -80.8619,44.6446 -21.01872,5.23494 -19.74632,-21.33243 -22.70912,-34.77843 -15.76648,-28.71651 12.04922,-65.08141 -13.63073,-90.11755 -18.60043,-22.98849 -49.01848,-12.22081 -74.31136,-14.44542 H 554.49732 c -47.66274,10.4741 -28.54306,64.96077 -36.19586,97.88583 -1.4506,18.84823 -3.0552,48.37461 -28.37936,41.29414 -32.32945,2.87907 -73.03909,-11.5394 -75.76681,-48.94055 -2.39883,-56.92848 -2.26055,-114.25729 -0.0909,-171.22755 1.03855,-39.3481 39.7711,-54.14124 73.46161,-52.88947 z m 536.62769,67.87367 c -42.71812,-3.7008 -29.39198,59.85689 7.3667,48.3637 34.2029,-5.94776 22.8195,-51.41383 -7.3667,-48.3637 z m -93.3312,98.44718 c 15.58257,36.26956 16.8462,77.0044 26.81598,115.04129 -0.57417,23.0602 24.96993,68.5664 6.32019,78.073 -20.89825,-6.0244 -15.32587,-46.0272 -44.32325,-20.3997 -40.59203,17.7128 -86.89314,8.8494 -125.28479,-10.1123 -40.90177,-15.8175 -85.32452,-2.7621 -123.10898,15.1572 -36.6746,10.7937 -76.06975,1.5826 -109.29717,-15.4931 2.53612,16.3415 -15.55507,45.5242 -27.40466,21.4913 12.47849,-60.6159 23.87205,-121.30398 37.07531,-181.88693 28.46099,-12.04245 11.32619,27.37298 41.16638,21.89814 36.32349,13.90348 70.32428,-7.82359 105.22164,-13.93578 41.07362,-6.99524 83.81522,-1.58825 121.89905,15.08315 21.53288,4.03499 70.6222,9.57836 74.31136,-17.65444 -3.61326,-10.68896 12.1363,-4.53344 16.60894,-7.26183 z m -187.76077,28.97077 c -44.53026,1.75134 -85.70591,41.11981 -130.9516,21.10477 -22.27585,-17.15056 -40.36824,3.31279 -26.77517,24.18198 41.57361,19.639 89.9972,11.8872 129.31781,-9.39984 36.72625,-15.97717 76.55117,-1.94274 110.40259,14.30857 32.58339,10.87417 69.59337,7.7631 100.30228,-7.21292 5.40105,-29.53366 -13.86083,-35.54808 -35.33185,-19.317 -52.31906,14.18985 -95.23617,-29.58397 -146.96406,-23.66556 z m 1.95557,63.38113 c -45.97895,2.09157 -87.14992,40.36029 -134.44593,23.06909 -21.87265,-9.73255 -48.27515,-22.56628 -42.30475,13.867 17.38131,15.4416 54.69787,21.4843 80.9765,20.4073 43.25387,-4.8135 82.31454,-39.1015 127.5067,-24.6119 35.3461,11.2983 70.11238,32.4281 108.74649,23.389 17.8333,-2.8853 34.44164,-10.2885 51.46076,-16.0274 1.88096,-28.3359 -9.48628,-37.28263 -34.01382,-18.8756 -37.82877,14.0513 -77.09828,-0.4724 -112.11758,-15.26772 -14.70339,-5.48321 -30.29474,-6.20973 -45.80837,-5.94977 z m 5.83989,91.84199 c 13.69678,-2.7471 46.4205,10.3134 15.83202,7.7223 -18.67064,0.1764 -69.63891,2.0914 -26.92246,-6.702 l 3.77718,-0.5585 7.31326,-0.4614 z"
       sodipodi:nodetypes="scccccccccccccccccsscccccccccccccccccccsccccccccccccccssccccccccccccccccccccccccccccccccccccccccc" /><path
       id="ellipse2"
       style="fill:#385099;fill-rule:evenodd;stroke:#354046;stroke-width:0;stroke-linejoin:round;stroke-miterlimit:3.9"
       d="m 57.622161,45.895649 a 2.180568,2.2509089 0 0 1 -2.180568,2.250909 2.180568,2.2509089 0 0 1 -2.180568,-2.250909 2.180568,2.2509089 0 0 1 2.180568,-2.250909 2.180568,2.2509089 0 0 1 2.180568,2.250909 z"
       transform="matrix(13.715724,0,0,12.433388,171.58216,247.07943)" /><path
       id="ellipse3"
       style="fill:#385099;fill-rule:evenodd;stroke:#354046;stroke-width:0;stroke-linejoin:round;stroke-miterlimit:3.9"
       d="m 64.361774,45.895649 a 2.180568,2.2509089 0 0 1 -2.180568,2.250909 2.180568,2.2509089 0 0 1 -2.180568,-2.250909 2.180568,2.2509089 0 0 1 2.180568,-2.250909 2.180568,2.2509089 0 0 1 2.180568,2.250909 z"
       transform="matrix(13.715724,0,0,12.433388,171.58216,247.07943)" /></g></svg>
