<?xml version="1.0" encoding="UTF-8"?>
<svg version="1.1" xmlns="http://www.w3.org/2000/svg" width="512" height="512">
<path d="M0 0 C1.07075775 0.00506058 1.07075775 0.00506058 2.16314697 0.01022339 C27.51773625 0.1827732 56.02378105 6.20022648 76.36378479 22.47943115 C80.77542012 24.98421487 83.9562555 24.99360832 88.93212891 24.93579102 C89.83056519 24.94130981 90.72900146 24.94682861 91.65466309 24.95251465 C93.59925785 24.9618157 95.54391354 24.96195551 97.48851395 24.95392036 C100.5758509 24.94125533 103.66229821 24.95261518 106.74960327 24.96995544 C112.1997401 24.99665284 117.64965838 25.00225188 123.09985352 25.00085449 C131.80086011 24.99862689 140.50159417 25.01299877 149.20249557 25.05644035 C152.22683044 25.06620532 155.25072963 25.05759641 158.27505493 25.04774475 C182.92715744 25.07488697 182.92715744 25.07488697 191.28515625 31.859375 C198.28486479 39.09181042 201.10330262 46.83781713 200.98330688 56.88690186 C200.97781023 57.60382682 200.97231358 58.32075179 200.96665037 59.05940175 C200.94630835 61.44441726 200.91170379 63.82901438 200.87744141 66.21386719 C200.86053318 67.93100967 200.84474926 69.64816353 200.83000183 71.36532593 C200.79751094 75.05556392 200.76020834 78.74571213 200.72011185 82.43587494 C200.65984064 88.27826155 200.62988342 94.12055386 200.60775757 99.9631958 C200.60393841 100.95085269 200.60011926 101.93850957 200.59618437 102.95609546 C200.58469679 105.99677107 200.57359301 109.03744793 200.5625 112.078125 C200.51582035 124.65179038 200.4473317 137.22407774 200.28808594 149.796875 C200.17202287 158.97733133 200.11285724 168.15620442 200.1193918 177.33741879 C200.12065652 182.19121715 200.09341079 187.0410265 199.99675369 191.89394379 C199.90630531 196.46259118 199.89146649 201.0254204 199.93296242 205.59471512 C199.93497498 207.26413744 199.9099098 208.9338629 199.85475349 210.60237503 C199.45602298 219.52423413 199.45602298 219.52423413 203.38807249 227.18063259 C207.24641902 230.46297931 211.4723473 232.99148592 215.91965079 235.3903718 C218.42699092 236.77743768 220.7303826 238.39951914 223.046875 240.08203125 C223.79477295 240.60619629 224.5426709 241.13036133 225.31323242 241.67041016 C226.05549072 242.1916748 226.79774902 242.71293945 227.5625 243.25 C229.26169642 244.4414381 230.96091585 245.63284337 232.66015625 246.82421875 C233.50980957 247.42024902 234.35946289 248.0162793 235.23486328 248.63037109 C238.64659835 251.02226946 242.06138944 253.40978381 245.47631836 255.79711914 C247.97514816 257.54511549 250.47206583 259.29581585 252.96875 261.046875 C256.14883973 263.27650522 259.33674031 265.49421236 262.53125 267.703125 C288.09295841 285.43353548 288.09295841 285.43353548 292.33984375 301.68359375 C294.23320535 312.7151634 293.12690838 323.97742788 287.45703125 333.78125 C286.01281928 335.79462861 284.48558009 337.61122221 282.8125 339.4375 C282.28785156 340.05238281 281.76320313 340.66726563 281.22265625 341.30078125 C274.43752101 348.7564475 264.9996626 352.95186135 254.98046875 353.73828125 C236.46315689 353.79279738 226.1582872 346.49947393 211.4296875 336.17578125 C210.04027954 335.20251892 210.04027954 335.20251892 208.62280273 334.20959473 C206.35248701 332.6192027 204.08239228 331.02849629 201.8125 329.4375 C201.80891747 330.66195155 201.80891747 330.66195155 201.80526257 331.91113949 C201.74607293 351.79265013 201.67049742 371.67403995 201.57678509 391.55541897 C201.53185938 401.16999145 201.49243727 410.78452717 201.46606445 420.39916992 C201.44305826 428.78132662 201.40963094 437.16336662 201.36379844 445.54543072 C201.33990157 449.98183191 201.32114964 454.41811779 201.31488609 458.85458183 C201.30881922 463.03495596 201.28876174 467.21503516 201.25822449 471.39529991 C201.24946988 472.92504068 201.24571632 474.45482002 201.24749184 475.98458481 C201.25579705 486.44708815 201.06580125 495.67089236 193.6875 503.75 C192.98367188 504.55050781 192.27984375 505.35101563 191.5546875 506.17578125 C183.49996512 512.81920612 175.31526206 513.01603595 165.20643616 512.9521637 C163.72911002 512.95749477 162.25178931 512.96456369 160.77447885 512.97321075 C156.73223823 512.99179077 152.69036514 512.98554926 148.64810956 512.97505772 C144.28195031 512.96805249 139.91586557 512.98407367 135.54972839 512.99705505 C127.00303161 513.01867811 118.45646806 513.01857251 109.90975291 513.01042951 C102.9620994 513.00412532 96.0144847 513.00527039 89.06683159 513.01170158 C88.0773589 513.01260324 87.08788622 513.01350489 86.06842951 513.01443387 C84.05821462 513.01628511 82.04799974 513.01814767 80.03778487 513.02002143 C61.19441925 513.03659399 42.35112854 513.02788531 23.50776743 513.01103585 C6.27527012 512.99633935 -10.95705283 513.01096758 -28.18952768 513.03980602 C-45.89265419 513.06921101 -63.59570026 513.08016907 -81.29885012 513.07062382 C-83.30190534 513.06960128 -85.30496057 513.06860667 -87.30801582 513.0676403 C-88.29350529 513.06716391 -89.27899475 513.06668752 -90.29434754 513.0661967 C-97.23131156 513.06403403 -104.1681993 513.07382881 -111.10514641 513.08841133 C-119.56247135 513.10594221 -128.01957402 513.10580642 -136.47689026 513.08305968 C-140.79012035 513.07192437 -145.10295894 513.06873871 -149.41617203 513.08736038 C-153.36848236 513.10420407 -157.32006089 513.09776225 -161.27232415 513.07314359 C-162.69819622 513.06827258 -164.12412774 513.07174252 -165.54994988 513.08463103 C-175.78404627 513.17042833 -183.15181415 511.70688583 -191.0625 505 C-196.92465579 497.93092978 -199.49953256 492.02340346 -199.44476891 482.82426834 C-199.45002802 481.69898594 -199.45002802 481.69898594 -199.45539337 480.55097055 C-199.46470374 478.03498464 -199.45978501 475.51923038 -199.45492554 473.00323486 C-199.45866198 471.18201978 -199.46326348 469.3608063 -199.46865618 467.53959537 C-199.48090235 462.53294361 -199.48062381 457.5263586 -199.47826743 452.51969528 C-199.47785967 447.12077553 -199.48889451 441.72187729 -199.49838257 436.32296753 C-199.51500252 425.74453662 -199.52049257 415.16612801 -199.52160732 404.58768514 C-199.52255735 395.98951178 -199.52666535 387.39134578 -199.53300858 378.79317474 C-199.55062386 354.42008898 -199.55984702 330.04702083 -199.55834763 305.67392865 C-199.55826772 304.35969626 -199.5581878 303.04546387 -199.55810547 301.69140625 C-199.55802371 300.37557063 -199.55794195 299.05973502 -199.55785771 297.7040256 C-199.55704477 276.37805704 -199.57618359 255.05217512 -199.6043822 233.72622457 C-199.63310249 211.83312104 -199.64692296 189.94005197 -199.64519465 168.04692912 C-199.64453044 155.75392472 -199.65003618 143.46099434 -199.67155075 131.1680069 C-199.68975128 120.70143401 -199.69411913 110.23496872 -199.6805319 99.76838687 C-199.67399655 94.42842834 -199.67390568 89.08867629 -199.6912384 83.74873734 C-199.70694888 78.85827596 -199.70412603 73.96818512 -199.68667014 69.07773289 C-199.6835958 67.3105842 -199.68724897 65.543408 -199.69839029 63.77629176 C-199.76029976 53.25847276 -199.45479866 43.90149348 -192.9375 35.125 C-184.90331322 27.27340837 -176.17500857 25.20847099 -165.12234497 25.21406555 C-163.88845535 25.22967781 -163.88845535 25.22967781 -162.62963867 25.24560547 C-161.73222458 25.24841019 -160.83481049 25.2512149 -159.91020203 25.25410461 C-157.9798277 25.26055502 -156.04946339 25.27108791 -154.11913109 25.28536606 C-151.05237385 25.30502791 -147.9860797 25.30701013 -144.91926575 25.30349731 C-136.20596897 25.29386414 -127.49313028 25.29329694 -118.7800293 25.35839844 C-113.4318492 25.39707164 -108.08486994 25.39639839 -102.73662758 25.37082291 C-100.71263469 25.3684251 -98.68856771 25.38030341 -96.66475487 25.40740585 C-83.55558058 25.57582688 -75.72537152 24.41662675 -65.1875 16.4375 C-57.65081376 12.13123275 -50.05319352 8.84627401 -41.8125 6.1875 C-41.09497559 5.95337402 -40.37745117 5.71924805 -39.63818359 5.47802734 C-26.54965177 1.46957468 -13.63116442 -0.12636654 0 0 Z M-82.1875 55.4375 C-103.06370812 76.93751332 -114.64978519 105.82033235 -114.5 135.6875 C-114.49436035 136.87263184 -114.4887207 138.05776367 -114.48291016 139.27880859 C-114.11094143 166.22628518 -103.98016415 192.13832959 -86.1875 212.4375 C-85.8575 212.4375 -85.5275 212.4375 -85.1875 212.4375 C-84.9915625 211.468125 -84.795625 210.49875 -84.59375 209.5 C-79.5634673 186.31924281 -67.02797412 167.57133498 -47.1875 154.4375 C-47.66960937 153.47070312 -48.15171875 152.50390625 -48.6484375 151.5078125 C-56.64217062 135.17947108 -59.02231491 119.20918817 -53.1875 101.4375 C-48.00433054 87.65097444 -38.18689613 77.25216141 -25.1875 70.4375 C-24.42308594 70.02886719 -23.65867187 69.62023437 -22.87109375 69.19921875 C-9.07359086 62.77906089 7.3400763 63.49849028 21.5 68.125 C36.68687268 74.17741543 47.20076571 84.62981102 53.8125 99.4375 C59.83646594 115.66498127 59.18274797 131.84099768 52.43359375 147.671875 C51.29198108 149.97461508 50.11250252 152.22110225 48.8125 154.4375 C49.64652344 155.04335937 50.48054687 155.64921875 51.33984375 156.2734375 C70.43616047 170.37931844 82.70610613 188.82573527 86.8125 212.4375 C104.75689936 195.5148458 115.33895956 167.71374919 116.11328125 143.39453125 C116.13254074 141.34644099 116.13610501 139.2981507 116.125 137.25 C116.12008545 136.16283691 116.1151709 135.07567383 116.11010742 133.95556641 C115.67045455 103.45042132 103.54240208 77.4192967 82.8125 55.4375 C82.20019531 54.76074219 81.58789062 54.08398438 80.95703125 53.38671875 C61.31348401 32.48665462 31.59519049 21.58620018 3.41015625 20.47265625 C-29.03299471 19.81168706 -59.09957196 32.97645801 -82.1875 55.4375 Z M-178.1875 51.4375 C-178.49531021 54.62563738 -178.49531021 54.62563738 -178.44476891 58.46318531 C-178.44827498 59.19843757 -178.45178105 59.93368983 -178.45539337 60.69122246 C-178.46477369 63.18043699 -178.45976714 65.66942095 -178.45492554 68.15864563 C-178.45865848 69.95109839 -178.46325856 71.74354952 -178.46865618 73.53599805 C-178.48094585 78.48152939 -178.48061873 83.42699339 -178.47826743 88.37253654 C-178.47786076 93.69849253 -178.48888406 99.02442648 -178.49838257 104.35037231 C-178.51502645 114.79265089 -178.52049365 125.23490689 -178.52160732 135.67719761 C-178.52255624 144.16204664 -178.5266587 152.64688819 -178.53300858 161.13173485 C-178.5506306 185.16641888 -178.559846 209.20108503 -178.55834763 233.23577557 C-178.55826772 234.53267422 -178.5581878 235.82957287 -178.55810547 237.16577148 C-178.55802371 238.46424635 -178.55794195 239.76272123 -178.55785771 241.10054382 C-178.55704464 262.14884646 -178.576185 283.19707757 -178.6043822 304.24535952 C-178.63307944 325.83659903 -178.64692423 347.42780362 -178.64519465 369.0190627 C-178.64452963 381.14932377 -178.65007074 393.27950986 -178.67155075 405.4097538 C-178.68972108 415.7374954 -178.69414416 426.06512806 -178.6805319 436.39287869 C-178.6739811 441.66535706 -178.67396091 446.93762617 -178.6912384 452.21008492 C-178.70688131 457.03321443 -178.70419598 461.85596723 -178.68667014 466.67908707 C-178.68358076 468.42742395 -178.6873049 470.17578834 -178.69839029 471.92409281 C-178.71242988 474.29461996 -178.70199079 476.66381076 -178.68527794 479.03429127 C-178.68571267 480.35273527 -178.68614741 481.67117927 -178.68659532 483.02957612 C-178.10400307 487.00763396 -177.04425924 488.65570978 -174.1875 491.4375 C-171.02267248 492.49244251 -168.79943818 492.56387897 -165.47556496 492.56613445 C-164.27787062 492.5693589 -163.08017629 492.57258335 -161.84618819 492.5759055 C-160.5103839 492.57443424 -159.17457971 492.57286651 -157.83877563 492.57121277 C-156.42494279 492.57308004 -155.01111046 492.57538041 -153.59727895 492.57807809 C-149.70296437 492.58421284 -145.80867121 492.58406053 -141.91435289 492.58288372 C-137.71794838 492.58268013 -133.52155083 492.58819442 -129.32514954 492.59294128 C-121.10019161 492.60125757 -112.87524084 492.60399657 -104.65027906 492.60455366 C-97.96656251 492.60502836 -91.28284834 492.60708078 -84.59913254 492.61025429 C-65.66141186 492.61906352 -46.72369685 492.62367324 -27.7859741 492.62292381 C-26.25367962 492.62286388 -26.25367962 492.62286388 -24.69042969 492.62280273 C-23.15627047 492.62274141 -23.15627047 492.62274141 -21.59111814 492.62267885 C-5.01126984 492.6222723 11.56855576 492.63184341 28.14839749 492.6459411 C45.16085492 492.66029283 62.17330127 492.66721195 79.18576491 492.66634732 C88.74163434 492.66601494 98.29747997 492.66878019 107.85334396 492.67952538 C115.98883025 492.68861456 124.12428194 492.69081868 132.25977109 492.68401595 C136.41223197 492.68074273 140.56462644 492.68072286 144.71708107 492.6893692 C148.51679886 492.69719984 152.31639719 492.69583818 156.11611195 492.68708507 C158.14531195 492.68481046 160.17451555 492.69240562 162.20370138 492.70032471 C163.40661121 492.69572592 164.60952103 492.69112712 165.84888268 492.68638897 C166.88731044 492.68660634 167.92573821 492.68682371 168.99563348 492.68704766 C172.87593146 492.34329006 175.75004059 491.44241794 178.59740543 488.74926281 C180.27392999 485.5596122 180.21740326 483.04842457 180.25401306 479.44929504 C180.26504313 478.74577288 180.27607319 478.04225071 180.2874375 477.31740969 C180.32047674 474.95999346 180.33206613 472.60297418 180.34350586 470.24536133 C180.36230545 468.55494941 180.38224636 466.86454986 180.40324402 465.17416382 C180.46630746 459.62270712 180.49744577 454.0712485 180.52734375 448.51953125 C180.53948873 446.6066697 180.55183957 444.69380945 180.564394 442.78095055 C180.62153714 433.79322571 180.66423205 424.8055746 180.68922991 415.81770307 C180.71854235 405.45036353 180.79748418 395.08494655 180.91873258 384.71828443 C181.00928522 376.70027873 181.05364256 368.68282338 181.06357294 360.66431636 C181.07061785 355.87724422 181.09739296 351.09222662 181.17295647 346.30570412 C181.24294792 341.79938594 181.25545253 337.29646674 181.22467232 332.78974533 C181.22318909 331.14053578 181.24207256 329.49115635 181.28334045 327.84246254 C181.60966844 318.49070181 181.60966844 318.49070181 177.23159981 310.53021812 C174.18836941 308.21847756 171.14023192 306.30901531 167.8125 304.4375 C166.04520335 303.22313669 164.28764134 301.99428503 162.546875 300.7421875 C160.04860057 299.01830032 157.54594032 297.30119533 155.0390625 295.58984375 C142.87120666 287.17914716 134.50680819 279.32625152 131.27734375 264.3828125 C130.28008318 258.06403547 130.52634112 252.38555964 131.83203125 246.1328125 C132.10623901 244.80660889 132.10623901 244.80660889 132.38598633 243.45361328 C132.5971106 242.45563721 132.5971106 242.45563721 132.8125 241.4375 C121.64469319 233.48948155 121.64469319 233.48948155 110.375 225.6875 C109.71628906 225.23890625 109.05757813 224.7903125 108.37890625 224.328125 C106.8230471 223.2727433 106.8230471 223.2727433 104.8125 223.4375 C103.27792633 224.95469983 103.27792633 224.95469983 101.6875 226.9375 C79.36416812 252.95101531 46.91855442 268.53510115 12.8125 271.4375 C-1.7327168 272.14355166 -15.95611606 271.60284905 -30.1875 268.4375 C-30.88858887 268.2818457 -31.58967773 268.12619141 -32.31201172 267.96582031 C-66.47949165 259.96866664 -95.87749326 237.5439847 -114.60986328 208.21923828 C-133.00412161 178.46544227 -139.37055214 140.95707385 -132.09179688 106.67626953 C-127.03301462 85.38793251 -117.22733666 66.84038219 -104.1875 49.4375 C-103.5275 48.4475 -102.8675 47.4575 -102.1875 46.4375 C-111.09758965 46.36794045 -120.00758559 46.31465861 -128.91788769 46.28206348 C-133.05546356 46.26641818 -137.19285343 46.24520083 -141.33032227 46.21118164 C-145.32441851 46.17854741 -149.31833602 46.16063844 -153.31255531 46.15286827 C-154.83517584 46.14733203 -156.35778675 46.136521 -157.88033104 46.12030983 C-160.0157307 46.09848086 -162.1503951 46.09553526 -164.28588867 46.09692383 C-165.5005632 46.09026199 -166.71523773 46.08360016 -167.96672058 46.07673645 C-172.47304444 46.58149545 -175.02677139 48.27677139 -178.1875 51.4375 Z M103.8125 46.4375 C104.7736316 47.88501453 105.73552985 49.33202004 106.69775391 50.77880859 C107.23332916 51.584664 107.76890442 52.39051941 108.32070923 53.22079468 C109.88576358 55.54636497 111.52336724 57.80705103 113.1875 60.0625 C133.08183028 88.56453168 140.3075002 125.70111025 134.75 159.875 C132.11589624 174.16634326 127.11443567 188.07306696 120 200.72265625 C118.63690291 203.24845237 118.63690291 203.24845237 118.9855957 205.41381836 C120.08483997 208.10399719 121.44334155 208.93435517 123.85546875 210.53125 C124.68240234 211.08683594 125.50933594 211.64242187 126.36132812 212.21484375 C127.23208984 212.78332031 128.10285156 213.35179687 129 213.9375 C129.85142578 214.50597656 130.70285156 215.07445312 131.58007812 215.66015625 C133.98424153 217.26293185 136.39732653 218.85138478 138.8125 220.4375 C140.81451779 221.76783757 142.81348979 223.1026454 144.8125 224.4375 C145.40675781 224.03917969 146.00101562 223.64085937 146.61328125 223.23046875 C155.30858321 217.67250747 162.81282824 215.25750348 173.171875 215.3671875 C174.41936523 215.37733887 175.66685547 215.38749023 176.95214844 215.39794922 C177.89606445 215.41100098 178.83998047 215.42405273 179.8125 215.4375 C179.90591474 194.27133612 179.9764652 173.10520621 180.01974869 151.93887806 C180.04037958 142.11111882 180.06851025 132.28348761 180.11425781 122.45581055 C180.15410944 113.89064422 180.17992898 105.32557062 180.18885398 96.76031417 C180.19407157 92.2244546 180.20634569 87.68886031 180.23542023 83.15308571 C180.26256292 78.88411619 180.27094736 74.61552131 180.26493073 70.34647369 C180.26603148 68.77953493 180.27399239 67.21258369 180.2893219 65.64571953 C180.30923302 63.50564722 180.30443661 61.36698814 180.29351807 59.22688293 C180.29904882 57.43076931 180.29904882 57.43076931 180.30469131 55.59837055 C179.71047955 51.78232093 178.53345842 50.13415156 175.8125 47.4375 C172.38211706 46.29403902 169.7561825 46.317384 166.13793945 46.32397461 C165.464505 46.32382858 164.79107056 46.32368256 164.097229 46.3235321 C161.87338021 46.32422825 159.64961539 46.33200668 157.42578125 46.33984375 C155.88307236 46.34170899 154.34036289 46.34313239 152.7976532 46.34413147 C148.73866132 46.34794831 144.67970527 46.35777149 140.62072754 46.36883545 C136.47827641 46.37906748 132.3358195 46.38363293 128.19335938 46.38867188 C120.06638982 46.39939449 111.93944937 46.41646093 103.8125 46.4375 Z M-26.84765625 96.796875 C-33.99526623 104.86329294 -36.53987892 113.99777018 -36.3984375 124.53515625 C-35.6529853 134.79202638 -30.89611537 143.12832346 -23.5625 150.1875 C-15.09142825 157.04427318 -5.855156 159.51149023 4.91015625 158.9140625 C16.00521095 157.55911088 24.3706724 152.09316884 31.37109375 143.53125 C36.75319423 135.73758521 39.05027464 125.80520354 37.8125 116.4375 C35.41023173 105.54149748 30.18449255 97.10846304 20.97265625 90.71875 C4.12236272 80.72436252 -12.84478683 83.76492873 -26.84765625 96.796875 Z M31.0078125 170.29296875 C30.32460937 170.73253906 29.64140625 171.17210937 28.9375 171.625 C15.98565705 179.04381564 1.47633787 180.53600625 -13.078125 177.671875 C-17.87273338 176.26694324 -22.23139669 174.4907864 -26.625 172.125 C-30.71809369 170.18616615 -31.91408648 170.27251164 -36.1875 171.4375 C-50.74378791 180.5750238 -60.6442676 195.45201796 -64.6640625 211.98046875 C-65.33734705 215.14088653 -65.88931885 218.21714361 -66.1875 221.4375 C-66.35636719 222.14519531 -66.52523437 222.85289062 -66.69921875 223.58203125 C-67.13015325 226.30201567 -67.14756261 227.83994743 -66.1875 230.4375 C-62.30351689 233.93828076 -57.84994207 236.16698177 -53.1875 238.4375 C-52.56713867 238.74961426 -51.94677734 239.06172852 -51.30761719 239.38330078 C-23.25134959 253.32389552 8.20538569 255.27337051 37.9375 245.75 C48.69328167 242.11515935 58.4476422 236.82263032 67.8125 230.4375 C67.25817131 210.64796592 61.86453099 193.91535011 47.8125 179.4375 C40.06367845 171.92097183 40.06367845 171.92097183 31.0078125 170.29296875 Z M155.375 243.3125 C151.47709863 249.20266207 150.25359595 253.92342504 151.24609375 260.93359375 C153.47768431 270.79876307 161.70940895 275.47385311 169.56152344 280.88525391 C171.89778421 282.49631096 174.21951717 284.12669912 176.5390625 285.76171875 C180.76111338 288.73374025 184.99479168 291.6887063 189.23193359 294.63916016 C192.60005555 296.98633011 195.96314533 299.34064132 199.32568359 301.69580078 C200.98059047 302.85485298 202.63586276 304.01338362 204.29150391 305.17138672 C208.57583127 308.16814369 212.85568572 311.17101623 217.12890625 314.18359375 C235.19932827 328.55246373 235.19932827 328.55246373 256.8125 332.4375 C263.30644554 329.97975878 267.75024829 325.07099112 271.125 319.125 C272.83463466 312.44188268 272.03923031 306.97258352 269.37109375 300.67578125 C264.6654401 293.91803804 256.80434113 289.51585928 250.125 284.9375 C248.06230227 283.51330717 245.99980582 282.08882277 243.9375 280.6640625 C242.90753906 279.95411133 241.87757813 279.24416016 240.81640625 278.51269531 C236.40552802 275.46551838 232.01429164 272.39065334 227.625 269.3125 C225.99089285 268.16795814 224.35677827 267.02342688 222.72265625 265.87890625 C219.37562944 263.53351019 216.02949037 261.18685174 212.68359375 258.83984375 C208.52194294 255.92131423 204.35681783 253.00780953 200.18896484 250.09814453 C198.61261228 248.99660866 197.03740346 247.89343411 195.46337891 246.78857422 C193.27055605 245.25008783 191.07338468 243.71802422 188.875 242.1875 C187.90868652 241.50651245 187.90868652 241.50651245 186.92285156 240.81176758 C176.50836256 233.59434281 163.92095598 232.48485674 155.375 243.3125 Z " fill="#000000" transform="translate(209.1875,-0.4375)"/>
<path d="M0 0 C1.23352955 -0.00551503 1.23352955 -0.00551503 2.49197888 -0.01114148 C5.26331522 -0.02220481 8.0346141 -0.02602664 10.80596924 -0.02983093 C12.78665283 -0.03609358 14.76733524 -0.0427402 16.74801636 -0.04974365 C22.1406867 -0.06717181 27.53334816 -0.07771035 32.9260397 -0.08594918 C36.29337914 -0.09109547 39.6607158 -0.09717136 43.02805328 -0.10346031 C53.55834183 -0.12251741 64.08862333 -0.13674747 74.61892581 -0.14507228 C86.78423693 -0.15484775 98.94936625 -0.18117328 111.11461329 -0.22157317 C120.51084956 -0.25170914 129.90703364 -0.26653876 139.30331731 -0.26985329 C144.91840626 -0.27220665 150.5333011 -0.28120423 156.14833832 -0.30631447 C161.43099163 -0.32955607 166.7133225 -0.33384412 171.99601364 -0.32355309 C173.93502498 -0.32305666 175.87405198 -0.32940834 177.81301498 -0.34310913 C180.46052955 -0.36076988 183.10687964 -0.3537508 185.75439453 -0.34057617 C186.5215248 -0.35154542 187.28865507 -0.36251466 188.07903171 -0.37381631 C193.22554609 -0.31199627 196.17390928 0.88262167 200.13116455 4.14717102 C201.41267515 6.71019222 201.2791999 8.56564387 201.3081665 11.4355011 C201.32741936 13.09280998 201.32741936 13.09280998 201.34706116 14.78359985 C201.35444809 15.98252365 201.36183502 17.18144745 201.3694458 18.41670227 C201.37751755 19.64499252 201.38558929 20.87328278 201.39390564 22.13879395 C201.4077559 24.74223922 201.41847382 27.34570272 201.42633057 29.94917297 C201.43955946 33.93276823 201.48742972 37.91575382 201.53155518 41.89912415 C201.54168127 44.42581074 201.55019763 46.9525044 201.5569458 49.47920227 C201.57445389 50.67205338 201.59196198 51.86490448 201.61000061 53.09390259 C201.58827004 61.3709309 201.58827004 61.3709309 199.22955322 65.37641907 C195.36627393 68.6364964 192.03165032 68.29548226 187.17967224 68.29434204 C185.93283369 68.29985707 185.93283369 68.29985707 184.66080648 68.30548352 C181.85949716 68.31654715 179.0582249 68.32036871 176.25689697 68.32417297 C174.25488669 68.33043555 172.25287758 68.33708217 170.25086975 68.34408569 C164.80041712 68.36151339 159.34997326 68.37205205 153.89949965 68.38029122 C150.49665597 68.38543711 147.09381503 68.391513 143.69097328 68.39780235 C133.0512299 68.41685847 122.41149349 68.4310893 111.77173632 68.43941432 C99.47680493 68.44919245 87.1820533 68.4755253 74.88718528 68.51591522 C65.39245167 68.54603959 55.89776969 68.56087966 46.40298921 68.56419533 C40.72812931 68.56654983 35.05346135 68.57556221 29.37865257 68.60065651 C24.04101134 68.62387818 18.70368925 68.62819425 13.36601067 68.61789513 C11.40561616 68.61739823 9.44520625 68.62376369 7.48485947 68.63745117 C4.81072329 68.65507957 2.1377437 68.6481089 -0.53639221 68.63491821 C-1.70312972 68.65137208 -1.70312972 68.65137208 -2.89343768 68.66815835 C-6.59988576 68.62394439 -8.67971117 68.26898965 -11.82711315 66.24168682 C-14.94048233 63.0478142 -15.00424928 61.21630149 -15.06170654 56.85884094 C-15.07776947 55.75396835 -15.0938324 54.64909576 -15.11038208 53.51074219 C-15.1547558 48.45555678 -15.19589346 43.40050357 -15.21893311 38.34516907 C-15.23226832 35.67625541 -15.26279347 33.00914915 -15.30096436 30.34028625 C-15.35564896 26.49833589 -15.37759532 22.65742658 -15.39227295 18.81513977 C-15.41494232 17.62228867 -15.43761169 16.42943756 -15.46096802 15.20043945 C-15.43740153 5.98623481 -15.43740153 5.98623481 -12.46112061 2.91792297 C-8.179366 -0.00688077 -5.06236664 -0.00120264 0 0 Z M6.13116455 21.14717102 C6.13116455 29.72717102 6.13116455 38.30717102 6.13116455 47.14717102 C63.55116455 47.14717102 120.97116455 47.14717102 180.13116455 47.14717102 C180.13116455 38.56717102 180.13116455 29.98717102 180.13116455 21.14717102 C122.71116455 21.14717102 65.29116455 21.14717102 6.13116455 21.14717102 Z " fill="#000000" transform="translate(116.86883544921875,292.8528289794922)"/>
<path d="M0 0 C0.68098869 -0.00367669 1.36197738 -0.00735338 2.06360209 -0.01114148 C4.35048395 -0.0221739 6.63732037 -0.02602136 8.92422485 -0.02983093 C10.56185551 -0.0360958 12.19948475 -0.04274262 13.83711243 -0.04974365 C18.28960289 -0.06714826 22.74208263 -0.07770344 27.19459867 -0.08594918 C29.97548452 -0.09109936 32.75636703 -0.09717501 35.53725052 -0.10346031 C44.23559876 -0.12250892 52.93393851 -0.13674206 61.6323036 -0.14507228 C71.67801286 -0.15485147 81.72350219 -0.18119008 91.76913393 -0.22157317 C99.5314183 -0.25170846 107.29363953 -0.2665386 115.05598128 -0.26985329 C119.69350098 -0.27220627 124.33078561 -0.28119908 128.96824265 -0.30631447 C133.33001564 -0.32955577 137.69139812 -0.33384445 142.05321693 -0.32355309 C143.65401443 -0.32305669 145.2548309 -0.32940768 146.85556984 -0.34310913 C149.04147152 -0.36077256 151.22596313 -0.35375106 153.41186523 -0.34057617 C154.63487524 -0.34296453 155.85788525 -0.34535288 157.11795616 -0.34781361 C160.94979831 0.24214798 162.59592221 1.45569023 165.33291626 4.14717102 C167.06923262 7.61980375 166.93482028 11.35910115 166.33291626 15.14717102 C164.15132481 17.90286549 162.46114132 19.58305849 159.33291626 21.14717102 C157.16743069 21.25017329 154.99870047 21.28671377 152.83078003 21.29434204 C152.15543488 21.29801873 151.48008974 21.30169542 150.78427958 21.30548352 C148.51044515 21.31653871 146.23665639 21.3203673 143.96279907 21.32417297 C142.33679051 21.33043627 140.71078338 21.33708295 139.08477783 21.34408569 C134.6590197 21.36150849 130.23327238 21.37205107 125.80748844 21.38029122 C123.04318364 21.38543897 120.2788822 21.39151482 117.51457977 21.39780235 C108.86801785 21.41685853 100.2214645 21.43108841 91.57488561 21.43941432 C81.58973613 21.44918748 71.60480828 21.47550724 61.61973691 21.51591522 C53.90501505 21.54606529 46.19035676 21.56088216 38.47557712 21.56419533 C33.86651457 21.56654721 29.25768868 21.57552529 24.64868927 21.60065651 C20.31154908 21.62392274 15.9748016 21.62817639 11.6376152 21.61789513 C10.04691385 21.61739929 8.45619328 21.62373387 6.86555099 21.63745117 C4.69089281 21.65515342 2.51764653 21.64807387 0.34298706 21.63491821 C-0.87302563 21.63730657 -2.08903831 21.63969492 -3.34189987 21.64215565 C-7.34497128 21.04626114 -9.52692734 19.6533366 -12.66708374 17.14717102 C-14.39715942 13.68701967 -14.15061105 9.93044547 -13.66708374 6.14717102 C-10.0649233 0.18497443 -6.60133802 0.02308084 0 0 Z " fill="#000000" transform="translate(87.66708374023438,440.8528289794922)"/>
<path d="M0 0 C1.03501533 -0.00935994 1.03501533 -0.00935994 2.09094006 -0.01890898 C4.40269506 -0.03486191 6.71339896 -0.0222267 9.02516174 -0.00964355 C10.68264888 -0.01506374 12.3401312 -0.02218582 13.99760437 -0.03088379 C18.49974569 -0.04913394 23.00152074 -0.04204233 27.50366855 -0.02936745 C32.21389176 -0.01924682 36.92408343 -0.02863067 41.63430786 -0.03491211 C49.54573705 -0.04219197 57.45701694 -0.0325927 65.36842346 -0.0135498 C74.51506475 0.00821209 83.66134929 0.00117393 92.80798191 -0.02085543 C100.65948682 -0.03900877 108.51088434 -0.04156785 116.36240345 -0.03110075 C121.05240638 -0.02486449 125.74224165 -0.02403368 130.43223381 -0.0372467 C134.84250071 -0.04880337 139.25230793 -0.04078298 143.66252518 -0.01766968 C145.28104069 -0.01238126 146.8995949 -0.01389868 148.51809502 -0.02272034 C150.72808003 -0.03365508 152.93659312 -0.01993961 155.14648438 0 C156.38294425 0.0015081 157.61940413 0.0030162 158.89333248 0.00457001 C162.73998087 0.60155637 164.39041395 1.80341807 167.13673401 4.50793457 C168.74227344 7.71901344 168.61142457 11.02464185 168.13673401 14.50793457 C166.24921907 17.84738407 164.96120922 19.17003097 161.41245937 20.62445354 C157.91209381 21.56852126 154.97217549 21.76229012 151.35012817 21.76863098 C150.3636689 21.7743693 150.3636689 21.7743693 149.35728115 21.78022355 C147.16722759 21.79049146 144.97743925 21.78657337 142.78736877 21.78259277 C141.21165221 21.78694268 139.63593776 21.79212676 138.06022644 21.79808044 C133.78956286 21.81145129 129.51898789 21.81205128 125.24830747 21.80951715 C121.67972762 21.8084462 118.11116562 21.81333392 114.5425896 21.81812257 C106.12237868 21.82921098 97.70221237 21.8296588 89.28199768 21.8236084 C80.60233963 21.81756738 71.92284364 21.82988437 63.24321324 21.85117847 C55.78401074 21.86880394 48.32485979 21.87479436 40.86563724 21.87154073 C36.41371212 21.86972934 31.96190263 21.87234962 27.50999641 21.88625526 C23.32303218 21.89884451 19.13632032 21.89687921 14.94935989 21.88384438 C13.41552711 21.88148149 11.88167649 21.88420299 10.34786415 21.8924675 C8.24839312 21.90296152 6.14976489 21.8948142 4.05032349 21.88215637 C2.29078763 21.88240798 2.29078763 21.88240798 0.4957056 21.88266468 C-3.60650177 21.42501847 -6.20831215 20.42840028 -9.86326599 18.50793457 C-12.38871074 14.52844587 -13.01368145 12.4939915 -12.30076599 7.82043457 C-9.53126263 1.43853552 -6.89255476 0.00840937 0 0 Z " fill="#000000" transform="translate(177.86326599121094,390.4920654296875)"/>
<path d="M0 0 C1.04143158 -0.0127597 2.08286316 -0.02551941 3.15585327 -0.03866577 C4.27569611 -0.04089142 5.39553894 -0.04311707 6.54931641 -0.04541016 C7.70581696 -0.05206696 8.8623175 -0.05872375 10.05386353 -0.06558228 C12.49992279 -0.07570589 14.94600965 -0.08039939 17.39208984 -0.08007812 C21.12985882 -0.08444808 24.86644407 -0.12076414 28.60400391 -0.15869141 C30.98160404 -0.16456024 33.35920977 -0.16852919 35.73681641 -0.17041016 C36.85261078 -0.18478119 37.96840515 -0.19915222 39.11801147 -0.21395874 C45.28760538 -0.17772527 49.12394123 0.06927001 53.77587891 4.29052734 C55.37276932 7.48430816 55.14936847 10.8157405 54.77587891 14.29052734 C53.09989955 18.14527985 51.6365338 19.75130609 47.77587891 21.29052734 C45.31642151 21.55122375 45.31642151 21.55122375 42.53588867 21.56518555 C41.4912294 21.57471756 40.44657013 21.58424957 39.37025452 21.59407043 C38.24727463 21.59315903 37.12429474 21.59224762 35.96728516 21.59130859 C34.80841293 21.59559372 33.64954071 21.59987885 32.45555115 21.60429382 C30.00528619 21.61003563 27.55500418 21.6105385 25.10473633 21.60620117 C21.35614945 21.60304232 17.60835252 21.62649956 13.85986328 21.65185547 C11.4790049 21.65412857 9.0981444 21.65483191 6.71728516 21.65380859 C5.03585167 21.66762321 5.03585167 21.66762321 3.32044983 21.68171692 C2.2726384 21.67548813 1.22482697 21.66925934 0.14526367 21.6628418 C-0.77310776 21.66347122 -1.69147919 21.66410065 -2.63768005 21.66474915 C-6.40849594 21.11916489 -9.23842982 19.60478237 -11.53662109 16.54052734 C-12.85601376 12.22251497 -12.80932413 8.60723417 -10.97412109 4.47802734 C-7.86876445 0.59633154 -4.8382657 0.04033087 0 0 Z " fill="#000000" transform="translate(291.22412109375,440.70947265625)"/>
<path d="M0 0 C1.08485184 -0.01606293 2.16970367 -0.03212585 3.28742981 -0.04867554 C8.25102165 -0.09305494 13.21447892 -0.13418717 18.17822266 -0.15722656 C20.79810463 -0.17379473 23.41794125 -0.2010956 26.03759766 -0.23925781 C29.81005362 -0.29394832 33.58144934 -0.31588962 37.35424805 -0.33056641 C39.11071404 -0.36457047 39.11071404 -0.36457047 40.90266418 -0.39926147 C49.9512776 -0.3756951 49.9512776 -0.3756951 53.01904297 2.60058594 C55.91947038 6.81412243 55.99566134 9.00559826 55.37768555 13.99755859 C54.8034668 16.19287109 54.8034668 16.19287109 52.4909668 18.69287109 C48.60909895 20.85949501 45.43463355 21.31784121 41.02246094 21.33813477 C40.07790543 21.34451462 39.13334991 21.35089447 38.16017151 21.35746765 C37.14656052 21.35858047 36.13294952 21.3596933 35.08862305 21.36083984 C34.04073105 21.36416824 32.99283905 21.36749664 31.91319275 21.3709259 C29.69831786 21.37598559 27.48343535 21.37833452 25.26855469 21.37817383 C21.88227783 21.38036056 18.49632666 21.39852729 15.11010742 21.41748047 C12.95711374 21.42041453 10.80411852 21.42239924 8.65112305 21.42333984 C7.63953629 21.43052536 6.62794952 21.43771088 5.58570862 21.44511414 C4.63800095 21.44203751 3.69029327 21.43896088 2.71386719 21.43579102 C1.88432022 21.43721603 1.05477325 21.43864105 0.2000885 21.44010925 C-3.84171891 21.02315191 -6.5276362 19.80753321 -9.5090332 17.06787109 C-11.70439579 13.32762372 -12.07061256 10.43472682 -11.1965332 6.19287109 C-7.94857739 1.10440698 -5.85066121 0.07857779 0 0 Z " fill="#000000" transform="translate(85.196533203125,390.80712890625)"/>
</svg>
